<?xml version="1.0" encoding="UTF-8" standalone="no"?>
<!-- Created with Inkscape (http://www.inkscape.org/) -->

<svg
   width="64mm"
   height="64mm"
   viewBox="0 0 64 64"
   version="1.1"
   id="svg1"
   inkscape:export-filename="plantaej.svg"
   inkscape:export-xdpi="96"
   inkscape:export-ydpi="96"
   sodipodi:docname="ajo.svg"
   inkscape:version="1.4.2 (ebf0e94, 2025-05-08)"
   xmlns:inkscape="http://www.inkscape.org/namespaces/inkscape"
   xmlns:sodipodi="http://sodipodi.sourceforge.net/DTD/sodipodi-0.dtd"
   xmlns="http://www.w3.org/2000/svg"
   xmlns:svg="http://www.w3.org/2000/svg">
  <sodipodi:namedview
     id="namedview1"
     pagecolor="#ffffff"
     bordercolor="#000000"
     borderopacity="0.25"
     inkscape:showpageshadow="2"
     inkscape:pageopacity="0.0"
     inkscape:pagecheckerboard="0"
     inkscape:deskcolor="#d1d1d1"
     inkscape:document-units="mm"
     inkscape:export-bgcolor="#ffffff00"
     inkscape:zoom="1"
     inkscape:cx="78.999998"
     inkscape:cy="214.99999"
     inkscape:window-width="1366"
     inkscape:window-height="655"
     inkscape:window-x="0"
     inkscape:window-y="0"
     inkscape:window-maximized="1"
     inkscape:current-layer="layer2"
     showgrid="false">
    <inkscape:page
       x="0"
       y="0"
       width="64"
       height="64"
       id="page1"
       margin="0"
       bleed="0" />
  </sodipodi:namedview>
  <defs
     id="defs1" />
  <g
     inkscape:label="Capa 1"
     inkscape:groupmode="layer"
     id="layer1"
     style="display:inline">
    <rect
       style="display:inline;fill:#ffffff;fill-opacity:1;stroke-width:0.840579;stroke-linejoin:bevel;stroke-dashoffset:50"
       id="rect6-3"
       width="53.79705"
       height="53.79705"
       x="5.1014748"
       y="5.1014748" />
    <rect
       style="display:inline;fill:#ffffff;fill-opacity:1;stroke-width:1;stroke-linejoin:bevel;stroke-dashoffset:50"
       id="rect6"
       width="64"
       height="64"
       x="0"
       y="0" />
    <path
       style="display:none;fill:#8a993d;fill-opacity:1;stroke-width:1;stroke-linejoin:bevel;stroke-dashoffset:50"
       d="m 34.743681,27.485266 c 3.549188,5.768402 -3.485179,4.960069 -1.088982,11.228904 l 3.330018,4.567704 -8.89541,10e-7 C 31.258502,32.445335 24.33256,31.839134 29.197511,27.485266 24.351165,31.568428 25.563831,8.6818292 30.231632,8.0316175 36.284165,8.7550085 41.456651,27.88651 34.743681,27.485266 Z"
       id="path2"
       sodipodi:nodetypes="ccccccc" />
    <path
       style="display:none;fill:#8a993d;fill-opacity:1;stroke-width:1;stroke-linejoin:bevel;stroke-dashoffset:50"
       d="m 38.794536,31.291471 c 0.189486,6.770177 -5.498288,2.552956 -6.557538,9.180025 l 0.600029,5.620757 -7.703652,-4.447704 c 8.162873,-7.800122 2.467932,-11.788078 8.858037,-13.126163 -6.238639,1.112949 6.25486,-18.101094 10.6224,-16.330294 4.879952,3.652742 -0.206295,22.807352 -5.819276,19.103379 z"
       id="path2-9"
       sodipodi:nodetypes="ccccccc" />
    <path
       style="display:none;fill:#8a993d;fill-opacity:1;stroke-width:1;stroke-linejoin:bevel;stroke-dashoffset:50"
       d="m 24.394387,30.258351 c -0.189486,6.770177 5.498288,2.552956 6.557538,9.180025 l -0.600029,5.620757 7.703651,-4.447704 c -8.162872,-7.800122 -2.467932,-11.788078 -8.858036,-13.126163 6.238638,1.112949 -6.25486,-18.1010947 -10.6224,-16.330294 -4.879952,3.652742 0.206295,22.807352 5.819276,19.103379 z"
       id="path2-9-2"
       sodipodi:nodetypes="ccccccc" />
    <path
       style="display:inline;fill:#ffffff;fill-opacity:1;stroke-width:1;stroke-linejoin:bevel;stroke-dashoffset:50"
       d="m 0,34.039907 c 18.98249,13.597396 42.885915,-6.177522 63.999998,0 v 27.77682 H 0 Z"
       id="path1-5"
       sodipodi:nodetypes="ccccc" />
    <path
       style="display:none;fill:#5e462f;stroke-width:1;stroke-linejoin:bevel;stroke-dashoffset:50"
       d="m 0,36.223178 c 18.98249,13.597396 42.885915,-6.177522 63.999998,0 v 27.77682 H 0 Z"
       id="path1"
       sodipodi:nodetypes="ccccc" />
    <path
       d="M 5.1014974,39.069967 V 58.89873 H 58.89873 V 35.210254 C 40.990327,33.199494 21.574716,45.898029 5.1014974,39.069967 Z"
       style="display:inline;fill:#5e462f;stroke-linejoin:bevel;stroke-dashoffset:50"
       id="path7" />
    <path
       d="M 0,0 V 64.000228 H 64.000228 V 0 Z M 5.1014974,5.1014974 H 58.89873 V 58.89873 H 5.1014974 Z"
       style="display:none;fill:#ffffff;stroke-linejoin:bevel;stroke-dashoffset:50"
       id="path6" />
    <path
       id="path4"
       style="display:none;fill:#bcafaf;fill-opacity:1;stroke-width:0.873924;stroke-linejoin:bevel;stroke-dashoffset:50"
       d="m 39.641906,41.884289 c -0.26939,5.987018 -3.66181,3.516547 -6.800559,11.908975 -1.429365,-7.799801 -6.462298,-4.523793 -6.800559,-11.908975 0.4602,-3.15321 3.435613,-2.721533 6.800559,-6.802881 2.850974,2.239319 6.800559,3.045754 6.800559,6.802881 z"
       sodipodi:nodetypes="ccccc" />
  </g>
  <g
     inkscape:groupmode="layer"
     id="layer2"
     inkscape:label="Capa 2"
     style="display:inline">
    <path
       d="m 30.231746,8.0315511 c -1.957065,0.2726138 -0.921323,4.4540559 -1.471744,8.9178019 -0.940905,-3.598231 -1.155883,-2.136805 -2.719024,-1.503024 1.205464,5.703263 2.215808,16.647215 4.190768,17.666821 -0.409916,1.543462 0.320977,1.806023 1.030567,2.189828 0.467508,0.252867 -1.079961,-0.221676 1.579093,-0.221401 0.160955,2.7e-5 0.321886,0.003 0.482658,0.0088 0.217537,0.0078 0.434689,0.02088 0.651123,0.03927 0.949861,-0.815185 -0.637669,-1.535819 -0.651123,-2.016497 -0.373856,-9.018056 1.852224,-13.000432 2.991542,-19.762028 -1.763314,-0.714928 -0.346654,0.190774 -2.991542,3.598231 -1.284236,-4.628686 -0.190201,-8.5709366 -3.092318,-8.9177939 z"
       style="display:none;fill:#8a993d;stroke-linejoin:bevel;stroke-dashoffset:50"
       id="path8"
       sodipodi:nodetypes="ccccacccccccc" />
    <path
       d="m 32.841406,35.08158 c 0.160881,2.9e-5 0.321961,0.003 0.482658,0.0088 0.217537,0.0078 0.434689,0.02088 0.651123,0.03927 0.949861,-0.815185 -0.637669,-1.535737 -0.651123,-2.016415 -0.373856,-9.018056 1.852231,-13.000505 2.991549,-19.762101 -1.763314,-0.714928 -0.346661,0.190773 -2.991549,3.59823 -1.284236,-4.628686 -0.190201,-8.5709446 -3.092318,-8.9178019 -1.957065,0.2726138 -0.921323,4.4540559 -1.471744,8.9178019 -0.940905,-3.598231 -1.156073,-2.137048 -2.719214,-1.503267 1.205464,5.703263 2.215998,16.647532 4.190958,17.667138 -0.498917,2.716307 1.176126,1.833487 2.60966,1.968356 z"
       style="display:inline;fill:#8a993d;stroke-linejoin:bevel;stroke-dashoffset:50"
       id="path5"
       sodipodi:nodetypes="cccccccccccc" />
    <path
       d="m 26.975614,39.897823 c -0.478338,0.499214 -0.805679,1.101547 -0.934826,1.986442 0.338261,7.385182 5.371253,4.109033 6.800618,11.908834 3.138749,-8.392428 6.531229,-5.921816 6.800619,-11.908834 0,-2.041276 -1.166112,-3.211392 -2.688208,-4.213696 -3.344098,0.777691 -6.6789,1.58864 -9.978203,2.227254 z"
       style="display:inline;fill:#bcafaf;stroke-width:0.873924;stroke-linejoin:bevel;stroke-dashoffset:50"
       id="path9" />
  </g>
</svg>
