<?xml version="1.0" encoding="UTF-8" standalone="no"?>
<!-- Created with Inkscape (http://www.inkscape.org/) -->

<svg
   width="64.000229mm"
   height="64.000229mm"
   viewBox="0 0 64.000229 64.000229"
   version="1.1"
   id="svg1"
   inkscape:export-filename="/home/markos/Garden/grow_garden/Diseño1/Media/corner.svg"
   inkscape:export-xdpi="96"
   inkscape:export-ydpi="96"
   sodipodi:docname="cornerdeco.svg"
   inkscape:version="1.4.2 (ebf0e94, 2025-05-08)"
   xmlns:inkscape="http://www.inkscape.org/namespaces/inkscape"
   xmlns:sodipodi="http://sodipodi.sourceforge.net/DTD/sodipodi-0.dtd"
   xmlns="http://www.w3.org/2000/svg"
   xmlns:svg="http://www.w3.org/2000/svg">
  <sodipodi:namedview
     id="namedview1"
     pagecolor="#ffffff"
     bordercolor="#000000"
     borderopacity="0.25"
     inkscape:showpageshadow="2"
     inkscape:pageopacity="0.0"
     inkscape:pagecheckerboard="0"
     inkscape:deskcolor="#d1d1d1"
     inkscape:document-units="mm"
     inkscape:zoom="1.1263116"
     inkscape:cx="132.29022"
     inkscape:cy="185.56145"
     inkscape:window-width="1366"
     inkscape:window-height="655"
     inkscape:window-x="0"
     inkscape:window-y="0"
     inkscape:window-maximized="1"
     inkscape:current-layer="layer2">
    <inkscape:page
       x="0"
       y="0"
       width="64.000229"
       height="64.000229"
       id="page1"
       margin="0"
       bleed="0" />
  </sodipodi:namedview>
  <defs
     id="defs1" />
  <g
     inkscape:label="Capa 1"
     inkscape:groupmode="layer"
     id="layer1"
     style="display:none">
    <path
       style="display:inline;opacity:1;fill:#999999;stroke-width:2.64599;stroke-linejoin:bevel;stroke-dashoffset:50"
       d="M 63.999998,0 V 63.999998 H 0 C 35.950782,57.284115 57.284115,35.950782 63.999998,0 Z"
       id="path1"
       sodipodi:nodetypes="cccc" />
    <path
       style="display:inline;fill:#4d4d4d;stroke-width:2.30358;stroke-linejoin:bevel;stroke-dashoffset:50"
       d="M 63.999998,8.281965 V 63.999998 H 8.281965 C 39.580511,58.153189 58.153189,39.580511 63.999998,8.281965 Z"
       id="path1-3"
       sodipodi:nodetypes="cccc" />
    <path
       style="display:inline;fill:#999999;stroke-width:2.00499;stroke-linejoin:bevel;stroke-dashoffset:50"
       d="M 63.999998,15.504147 V 63.999998 H 15.504147 C 42.745769,58.911053 58.911053,42.745769 63.999998,15.504147 Z"
       id="path1-6"
       sodipodi:nodetypes="cccc" />
    <path
       style="display:inline;fill:#4d4d4d;stroke-width:1.74553;stroke-linejoin:bevel;stroke-dashoffset:50"
       d="M 63.999998,21.779787 V 63.999998 H 21.779787 C 45.496188,59.569592 59.569592,45.496188 63.999998,21.779787 Z"
       id="path1-3-0"
       sodipodi:nodetypes="cccc" />
    <path
       style="display:inline;fill:#999999;stroke-width:1.51964;stroke-linejoin:bevel;stroke-dashoffset:50"
       d="m 63.999998,27.243498 v 36.7565 h -36.7565 c 20.647265,-3.857068 32.899432,-16.109235 36.7565,-36.7565 z"
       id="path1-6-8"
       sodipodi:nodetypes="cccc" />
    <path
       style="display:inline;fill:#4d4d4d;stroke-width:1.32299;stroke-linejoin:bevel;stroke-dashoffset:50"
       d="M 63.999998,31.999999 V 63.999998 H 31.999999 C 49.97539,60.642057 60.642057,49.97539 63.999998,31.999999 Z"
       id="path1-3-0-7"
       sodipodi:nodetypes="cccc" />
    <path
       style="display:inline;fill:#999999;stroke-width:1.00249;stroke-linejoin:bevel;stroke-dashoffset:50"
       d="M 63.999998,39.752072 V 63.999998 H 39.752072 C 53.372884,61.455526 61.455526,53.372884 63.999998,39.752072 Z"
       id="path1-6-8-3"
       sodipodi:nodetypes="cccc" />
    <path
       style="display:inline;fill:#4d4d4d;stroke-width:0.872764;stroke-linejoin:bevel;stroke-dashoffset:50"
       d="M 63.999998,42.889893 V 63.999998 H 42.889892 C 54.748093,61.784795 61.784795,54.748093 63.999998,42.889893 Z"
       id="path1-3-0-7-7"
       sodipodi:nodetypes="cccc" />
    <path
       style="display:inline;fill:#999999;stroke-width:0.57575;stroke-linejoin:bevel;stroke-dashoffset:50"
       d="M 63.999998,50.073921 V 63.999998 H 50.073921 C 57.89663,62.538656 62.538656,57.89663 63.999998,50.073921 Z"
       id="path1-6-8-3-8"
       sodipodi:nodetypes="cccc" />
    <path
       style="display:inline;fill:#4d4d4d;stroke-width:0.501246;stroke-linejoin:bevel;stroke-dashoffset:50"
       d="M 63.999998,51.876036 V 63.999998 H 51.876035 c 6.810406,-1.272236 10.851727,-5.313557 12.123963,-12.123962 z"
       id="path1-3-0-7-7-9"
       sodipodi:nodetypes="cccc" />
    <path
       style="display:none;fill:#ff0000;fill-opacity:0.56192;stroke-width:1;stroke-linejoin:bevel;stroke-dashoffset:50"
       id="path8"
       d="m 8.6459731,64.536295 c -0.026408,-0.702109 0.091547,-1.39638 0.2083223,-2.085829 0.1998171,-0.864135 0.4703025,-1.717167 0.8701331,-2.510261 0.2021052,-0.30543 0.3295775,-0.693639 0.6271135,-0.927566 0.116768,-0.0918 0.248593,-0.162888 0.368382,-0.250711 0.79121,-0.495223 1.632582,-0.901464 2.492555,-1.261393 0.782338,-0.306221 1.607442,-0.463978 2.437171,-0.572331 0.854387,-0.10192 1.715659,-0.107206 2.574801,-0.114151 1.438331,0.03327 2.871221,-0.10875 4.304616,-0.204952 1.217778,-0.04951 2.427449,-0.209452 3.632059,-0.387458 1.137942,-0.141135 2.230065,-0.509001 3.300453,-0.905656 1.029276,-0.40422 1.99975,-0.923906 2.903122,-1.559076 0.994762,-0.733996 1.75519,-1.704393 2.422903,-2.731973 0.591749,-0.901539 1.024819,-1.88793 1.485175,-2.858755 0.429242,-0.847791 0.9114,-1.668155 1.393206,-2.48694 0.491969,-0.802878 0.969629,-1.613845 1.441595,-2.428629 0.505902,-0.800865 0.960538,-1.628939 1.520704,-2.39399 0.599498,-0.843999 1.156448,-1.716973 1.799087,-2.529456 0.429736,-0.536771 0.824063,-1.111845 1.374127,-1.533509 0.414189,-0.404064 0.890452,-0.702606 1.397643,-0.969788 0.596815,-0.302151 1.26642,-0.413546 1.911903,-0.569878 1.073023,-0.26702 2.159963,-0.475694 3.251692,-0.649478 0.950523,-0.175771 1.889892,-0.404037 2.834137,-0.609174 0.878126,-0.171767 1.691569,-0.515101 2.456577,-0.971084 0.628102,-0.39202 1.172525,-0.90156 1.723676,-1.392434 0.386524,-0.359605 0.800647,-0.682408 1.164343,-1.067024 0.37882,-0.400609 0.448337,-0.521507 0.787019,-0.973143 0.696794,-1.003821 1.194266,-2.117381 1.616697,-3.258248 0.540885,-1.593782 0.875125,-3.245359 1.115478,-4.907992 0.191188,-1.513664 0.222589,-3.040479 0.24079,-4.56408 0.0081,-1.098187 0.0035,-2.196412 7.93e-4,-3.29461 0.04139,-0.923296 -0.04855,-1.835129 -0.178953,-2.747555 -0.1357,-0.73966 -0.236786,-1.4835842 -0.288036,-2.2337232 -0.03446,-0.5895795 -0.03627,-1.1803046 -0.03769,-1.7706739 -0.01183,-0.5261735 0.02408,-1.0532346 0.100158,-1.5740163 0.02609,-0.4131598 0.180041,-0.7809709 0.338166,-1.1560908 0.147302,-0.4595749 0.331783,-0.8922715 0.594241,-1.2962977 0.229167,-0.3063036 0.439336,-0.6260342 0.671912,-0.9297809 -0.230198,0.307902 -0.04426,0.078757 -0.677545,0.5697684 3.194244,-1.51552152 1.050973,-6.0328645 -2.14327,-4.517343 v 0 c -0.985507,0.6727444 -0.632741,0.3298833 -1.1562,0.9171708 -0.324371,0.4269995 -0.627041,0.86996891 -0.934294,1.30924254 -0.394594,0.64152713 -0.744802,1.30755106 -0.972116,2.02869836 -0.320191,0.7771833 -0.592865,1.5737312 -0.677299,2.4158026 -0.09425,0.7444422 -0.162274,1.4939632 -0.143738,2.2452494 0.0019,0.7035839 0.0059,1.4075817 0.05007,2.1100605 0.06268,0.8687557 0.166511,1.7330472 0.326001,2.5897762 0.03922,0.274049 0.111903,0.569805 0.126193,0.846914 0.02066,0.400874 -0.01524,0.804686 0.0024,1.205741 0.0028,1.074221 0.0072,2.148467 -2.65e-4,3.222679 -0.01521,1.307241 -0.03657,2.617373 -0.19105,3.917109 -0.184878,1.319097 -0.448728,2.628428 -0.861497,3.89691 -0.252865,0.704948 -0.550524,1.391998 -0.956998,2.024216 -0.354523,0.517565 -0.767397,0.848564 -1.241811,1.258517 -0.333036,0.297035 -0.657979,0.612685 -1.021136,0.869117 -0.264609,0.193498 -0.5809,0.270084 -0.897104,0.341789 -0.853501,0.186486 -1.703382,0.389405 -2.560889,0.55754 -1.220858,0.19685 -2.43701,0.427794 -3.637324,0.726964 -1.053272,0.255143 -2.123747,0.489969 -3.083399,1.015257 -0.792292,0.424293 -1.551077,0.900972 -2.214422,1.5134 -0.813033,0.680519 -1.513793,1.462342 -2.141964,2.316893 -0.676841,0.867026 -1.289002,1.778624 -1.914686,2.682708 -0.653227,0.907852 -1.214207,1.869287 -1.798598,2.821848 -0.46696,0.806288 -0.939988,1.608486 -1.426681,2.403054 -0.55508,0.947153 -1.113837,1.894261 -1.600536,2.878894 -0.369729,0.781931 -0.707988,1.581216 -1.181267,2.309059 -0.311263,0.506793 -0.670761,0.993804 -1.137075,1.369255 -0.518486,0.404747 -1.132766,0.660691 -1.728645,0.92918 -0.737918,0.281411 -1.494476,0.54691 -2.282018,0.642115 -1.071104,0.161028 -2.147509,0.302106 -3.230787,0.344175 -1.335782,0.08983 -2.670539,0.227711 -4.010937,0.193876 -1.069651,0.0091 -2.141572,0.02386 -3.204349,0.159213 -1.267936,0.175876 -2.525727,0.434782 -3.715143,0.922597 -1.236432,0.527518 -2.4533305,1.113549 -3.5622556,1.879983 -0.4613127,0.355079 -0.6924617,0.510316 -1.1199908,0.952601 -0.5701654,0.589843 -0.9698027,1.31268 -1.3551278,2.028666 -0.5866408,1.233543 -1.0410354,2.526472 -1.3035722,3.86991 -0.1587664,0.961898 -0.3047005,1.930894 -0.2765657,2.909101 0,3.535532 4.9999999,3.535532 4.9999999,0 z" />
    <path
       style="display:none;fill:#00ff00;fill-opacity:0.525651;stroke-width:1;stroke-linejoin:bevel;stroke-dashoffset:50"
       id="path9"
       d="m 51.609275,38.664795 c 0.09785,-0.09356 0.20496,-0.178297 0.293542,-0.28067 0.503097,-0.581425 0.893329,-1.64071 1.163003,-2.344454 0.473532,-1.31557 0.751776,-2.68708 0.84098,-4.08028 0.024,-1.303613 -0.411964,-2.545723 -0.960509,-3.709284 -0.49395,-1.036127 -1.169188,-1.956153 -1.933146,-2.806259 -0.699066,-0.784324 -1.51153,-1.44127 -2.382787,-2.022491 -0.892196,-0.526727 -1.836865,-0.960837 -2.798657,-1.343508 -0.75053,-0.317695 -1.51181,-0.607961 -2.299906,-0.817325 -0.59131,-0.179561 -1.198243,-0.116783 -1.802366,-0.07036 -0.697275,0.04828 -1.396441,0.05623 -2.095079,0.06364 -0.734012,0.0057 -1.468051,0.0055 -2.202079,0.0054 -0.86795,-0.03883 -1.590866,0.400566 -1.519256,1.401715 0.03051,0.426595 0.323416,0.688351 0.576728,0.971449 0.199662,0.240354 0.490667,0.393978 0.701291,0.621276 0.04378,0.04725 -0.112591,-0.06766 -0.153432,-0.117465 -0.04856,-0.05922 -0.09525,-0.186829 -0.127423,-0.269087 -0.502375,0.406894 -1.020186,0.792783 -1.561674,1.147282 -0.771329,0.481677 -1.536446,0.977966 -2.333022,1.417356 -0.454729,0.287579 -0.956281,0.474809 -1.446046,0.68968 -0.508047,0.25623 -1.046818,0.438247 -1.56497,0.670882 -0.711378,0.357892 -1.392786,0.766541 -2.077271,1.171869 -0.605573,0.35674 -1.228576,0.673407 -1.767509,1.129228 -0.390664,0.509725 -0.506243,0.512377 -0.255857,1.433119 0.0877,0.322511 0.795467,0.731078 1.07084,0.97613 0.230902,0.220654 0.337741,0.514125 0.398441,0.820351 0.0585,0.315304 0.02593,0.619815 -0.03758,0.930267 -0.07379,0.427754 -0.190518,0.845116 -0.3155,1.260258 -0.130259,0.51399 -0.243776,1.028025 -0.420216,1.528768 -0.303029,0.647832 -0.718414,1.220398 -1.231212,1.715246 -0.529511,0.519734 -1.160815,0.864899 -1.825955,1.172059 -0.756461,0.313531 -1.510188,0.573934 -2.218645,0.991076 -0.864677,0.593543 -1.216326,1.236406 -1.450952,2.234803 -0.167211,0.697963 -0.07542,1.380302 0.07847,2.067745 0.156765,0.728449 0.619046,1.255033 1.181058,1.710431 0.531593,0.390038 1.034702,0.815663 1.522906,1.258179 0.39865,0.337502 0.576186,0.803431 0.778341,1.267592 0.268304,0.486701 0.391938,1.021519 0.497089,1.561782 0.105679,0.60783 0.115608,1.22268 0.233596,1.828485 0.06317,0.367909 0.232967,0.729549 0.202959,1.108626 -0.08769,0.417203 -0.194896,0.834686 -0.167318,1.265335 0.009,0.140809 0.04447,0.278667 0.0667,0.418002 0.292491,0.878329 0.607915,1.235734 1.526596,1.453811 1.027134,0.11502 2.06261,-0.07997 3.069191,-0.269801 1.089745,-0.282117 2.190181,-0.558175 3.22295,-1.012417 0.637239,-0.318876 1.219904,-0.7248 1.795325,-1.14118 1.342361,-0.703455 2.660727,-1.450059 3.96548,-2.220576 0.83784,-0.507783 1.655122,-1.048631 2.468888,-1.593922 0.909762,-0.585573 1.869641,-1.084368 2.770383,-1.684901 1.166352,-0.719542 1.936009,-1.761503 2.663045,-2.892411 0.56216,-0.829432 1.516115,-1.165971 2.403406,-1.537407 0.635259,-0.272293 1.316035,-0.503081 1.825971,-0.992619 0.308102,-0.295775 0.363345,-0.436229 0.574451,-0.78695 0.260331,-0.674949 0.5184,-1.351714 0.772765,-2.030002 0.196139,-0.542311 0.332034,-1.103019 0.433229,-1.669928 0.244848,-1.392857 -1.724948,-1.739122 -1.969796,-0.346266 v 0 c -0.07675,0.446236 -0.185217,0.886865 -0.336183,1.314193 -0.216979,0.579102 -0.459419,1.149348 -0.637751,1.741917 -0.03881,0.08031 -0.06174,0.170653 -0.117084,0.240596 -0.310123,0.391938 -0.912569,0.449987 -1.319643,0.684916 -1.267116,0.533109 -2.539297,1.10158 -3.313174,2.302296 -0.569248,0.891201 -1.165632,1.753737 -2.092952,2.310447 -0.897038,0.605459 -1.86758,1.087689 -2.77002,1.68466 -0.782236,0.524196 -1.567636,1.04443 -2.372572,1.533279 -1.358215,0.802188 -2.739266,1.561852 -4.12096,2.322428 -0.466074,0.337304 -0.934058,0.670219 -1.445072,0.938279 -0.877723,0.412239 -1.847799,0.598982 -2.773587,0.870638 -0.761331,0.145507 -1.535396,0.29151 -2.313676,0.271671 -0.0078,0.0035 -0.02846,0.0035 -0.02349,0.01045 0.01722,0.02418 0.270676,0.279011 0.07652,0.112006 -0.0068,-0.01598 -0.05128,-0.114289 -0.04983,-0.135609 0.02621,-0.386702 0.194451,-0.760503 0.188191,-1.15247 -0.0095,-0.519705 -0.09947,-1.018627 -0.243552,-1.518081 -0.133113,-0.596799 -0.08996,-1.219422 -0.231224,-1.816714 -0.13653,-0.678325 -0.29739,-1.355608 -0.625259,-1.97127 -0.315088,-0.723225 -0.657257,-1.426218 -1.26941,-1.95132 -0.522151,-0.472491 -1.058966,-0.928627 -1.626731,-1.34597 -0.214681,-0.159941 -0.409048,-0.304739 -0.468257,-0.577985 -0.09076,-0.403603 -0.183063,-0.779082 -0.07799,-1.194313 0.07776,-0.386583 0.185836,-0.728152 0.533867,-0.95902 0.626414,-0.396986 1.357578,-0.567851 2.023186,-0.887195 0.873669,-0.404493 1.695589,-0.883558 2.390124,-1.562624 0.719759,-0.719127 1.322716,-1.536454 1.716143,-2.481625 0.182973,-0.52923 0.319611,-1.067565 0.447236,-1.612096 0.144081,-0.481126 0.277392,-0.965525 0.364551,-1.46068 0.106084,-0.580271 0.147203,-1.162142 0.02394,-1.744969 -0.171309,-0.720407 -0.477985,-1.384795 -1.037931,-1.890234 -0.261249,-0.223628 -0.259299,-0.232301 -0.531296,-0.426431 -0.04229,-0.03018 -0.109638,-0.132078 -0.130866,-0.08466 -0.02783,0.06216 0.08763,0.117374 0.08574,0.185454 -0.0218,0.785897 0.07182,0.654114 -0.233122,0.931574 0.418814,-0.401873 1.001839,-0.582091 1.47076,-0.914209 0.621491,-0.369062 1.240039,-0.740966 1.88377,-1.07096 0.508924,-0.234637 1.046104,-0.403505 1.545011,-0.661953 0.544753,-0.241593 1.10304,-0.453408 1.610794,-0.771548 0.837538,-0.468114 1.649452,-0.981996 2.460376,-1.494465 0.661035,-0.436263 1.594707,-1.035221 2.063694,-1.671997 0.114798,-0.155866 0.194943,-0.334493 0.292412,-0.50174 0.04648,-0.196784 0.133242,-0.388248 0.139438,-0.590352 0.02476,-0.807816 -0.461025,-1.210311 -1.006567,-1.670126 -0.02569,-0.02022 -0.07265,-0.09303 -0.07708,-0.06064 -0.06199,0.452973 0.350419,0.250762 -0.165949,0.824234 -0.293172,0.325593 -0.839595,0.244112 -0.261393,0.244349 0.741251,1.43e-4 1.482516,2.91e-4 2.223752,-0.0055 0.742664,-0.0079 1.485868,-0.01713 2.227019,-0.06941 0.384079,-0.02951 0.764206,-0.10093 1.140835,0.01057 0.711933,0.18435 1.393807,0.460625 2.071939,0.742541 0.834578,0.328519 1.650921,0.708284 2.430973,1.151683 0.736439,0.482574 1.414386,1.039193 2.003528,1.696441 0.639768,0.701436 1.197997,1.466858 1.611196,2.325624 0.412489,0.851675 0.757325,1.772015 0.769245,2.72879 -0.06478,1.191393 -0.319757,2.362457 -0.713804,3.488471 -0.181194,0.480218 -0.365802,0.944964 -0.606269,1.398791 -0.04317,0.08147 -0.09143,0.160144 -0.136014,0.24085 -0.01532,0.02772 -0.0694,0.06596 -0.04365,0.0844 0.02796,0.02003 0.05949,-0.0345 0.08924,-0.05175 -1.176697,0.784463 -0.0673,2.448563 1.109401,1.6641 z" />
    <path
       style="display:none;fill:#00ff00;fill-opacity:0.564048;stroke-width:1;stroke-linejoin:bevel;stroke-dashoffset:50"
       id="path10"
       d="m 29.306813,47.644848 c 0,-0.404497 0,-0.808992 0,-1.21349 -0.0021,-0.556522 -0.0094,-1.112036 0.0309,-1.667298 0.01672,-0.453096 0.118166,-0.897327 0.265364,-1.3247 0.20833,-0.562634 0.425604,-1.121373 0.674005,-1.6676 0.268012,-0.617707 0.513408,-1.244783 0.78396,-1.861349 0.306383,-0.633624 0.661631,-1.240914 1.020377,-1.845704 0.332369,-0.54029 0.707546,-1.052328 1.114483,-1.538446 0.464037,-0.57484 0.924364,-1.152906 1.398685,-1.719326 0.337363,-0.445011 0.701641,-0.858616 1.119603,-1.228016 0.419804,-0.367665 0.868955,-0.692833 1.339488,-0.991317 0.295761,-0.179904 0.592769,-0.365393 0.919199,-0.486117 0.166365,-0.06153 0.340125,-0.100835 0.510331,-0.150759 1.020112,-0.28439 2.059035,-0.494313 3.09539,-0.70943 0.561546,-0.09298 1.121042,-0.258622 1.694188,-0.24274 0.07691,0.0038 0.08938,0.05298 0.142663,0.09538 0.08656,0.06888 0.178358,0.130953 0.265766,0.198752 0.155797,0.169037 0.460288,0.318077 0.541105,0.542684 -0.156226,-0.206361 -0.08975,-0.448381 -0.02916,-0.684109 0.01344,-0.05226 0.06239,-0.08972 0.07999,-0.140734 5.29e-4,-0.0019 -0.02759,0.0087 -0.101402,0.03559 -0.365032,0.110895 -0.753274,0.110882 -1.13052,0.14709 -0.538014,0.03749 -1.064815,0.114789 -1.555241,0.35452 -0.125961,0.06157 -0.243817,0.138496 -0.365723,0.207743 -0.527611,0.371197 -1.010225,0.825079 -1.292384,1.415219 -0.05152,0.10776 -0.08826,0.221988 -0.13239,0.332984 -0.138263,0.397684 -0.01318,0.711702 -0.282175,1.036341 -0.426006,0.464161 -0.911029,0.867857 -1.386121,1.279856 -0.34322,0.278307 -0.688845,0.5535 -1.022471,0.843346 -0.227418,0.205187 -0.443476,0.421095 -0.677281,0.618992 -0.25038,0.212027 -0.530095,0.378154 -0.747146,0.63014 -0.07668,0.08902 -0.142751,0.186669 -0.214127,0.280003 -0.385236,0.533361 -0.611399,1.141717 -0.786609,1.769269 -0.07177,0.379336 -0.212177,0.738211 -0.422852,1.061175 -0.170278,0.285089 -0.410787,0.482208 -0.672925,0.675783 -0.536776,0.38681 -1.074209,0.765627 -1.56463,1.211051 -0.568626,0.545965 -0.999082,1.199327 -1.36594,1.891247 -0.208643,0.33334 -0.363358,0.718071 -0.617009,1.021598 -0.132275,0.165574 -0.29006,0.30172 -0.470733,0.410689 0.07005,-0.07407 -0.334907,0.04731 -0.383357,0.05545 -0.388626,0.03925 -0.753944,0.17797 -1.108485,0.333754 -0.380739,0.154233 -0.755436,0.320339 -1.125443,0.498856 -0.375777,0.168561 -0.658979,0.443195 -0.907868,0.762884 -0.844589,1.134313 0.759575,2.328743 1.604162,1.194429 v 0 c 0.0072,-0.01267 0.01439,-0.02532 0.02159,-0.038 -0.0065,-2.6e-4 -0.02117,0.0054 -0.01934,-7.94e-4 0.01968,-0.06634 0.174162,-0.06688 0.171137,-0.11752 0.350679,-0.169497 0.706314,-0.325213 1.067144,-0.47185 0.21109,-0.09521 0.420947,-0.180361 0.65573,-0.194194 0.372862,-0.07048 0.753277,-0.142303 1.088139,-0.329173 0.381765,-0.24371 0.724403,-0.537715 1.002311,-0.897882 0.298457,-0.408014 0.547565,-0.850747 0.790241,-1.293699 0.259197,-0.492278 0.553508,-0.962824 0.95382,-1.355778 0.43102,-0.407635 0.933728,-0.721333 1.405343,-1.078698 0.457925,-0.344667 0.873646,-0.728239 1.174869,-1.222592 0.297606,-0.490463 0.540303,-1.013436 0.650869,-1.580502 0.109927,-0.396433 0.231979,-0.786148 0.474904,-1.12587 0.156257,-0.251365 0.427003,-0.363498 0.639635,-0.564328 0.24003,-0.203808 0.466233,-0.421248 0.696651,-0.635629 0.332338,-0.289687 0.679818,-0.56092 1.020003,-0.841201 0.614497,-0.5329 1.250609,-1.052806 1.751568,-1.699143 0.257879,-0.42264 0.534109,-0.919028 0.48296,-1.436275 0.08047,-0.311573 0.326496,-0.522245 0.56787,-0.719405 0.125693,-0.08234 0.263056,-0.178496 0.412371,-0.214193 0.222658,-0.05324 0.457412,-0.0388 0.682112,-0.07797 0.629317,-0.06187 1.273956,-0.07796 1.854922,-0.360648 0.307912,-0.169476 0.691499,-0.369073 0.854665,-0.705205 0.234363,-0.482795 0.219938,-0.867119 -0.01222,-1.320821 -0.274892,-0.427408 -0.628431,-0.778825 -1.030507,-1.089279 -0.477573,-0.365717 -0.976043,-0.695973 -1.600957,-0.709162 -0.720431,-0.0046 -1.4243,0.141634 -2.128168,0.284294 -1.089753,0.226201 -2.182016,0.447937 -3.254097,0.749208 -0.24564,0.07263 -0.510202,0.14574 -0.749187,0.237977 -0.419242,0.161803 -0.806243,0.3953 -1.187801,0.629348 -0.559922,0.356325 -1.094595,0.745641 -1.594382,1.183471 -0.490215,0.436472 -0.929286,0.916508 -1.325838,1.440323 -0.474594,0.567433 -0.936567,1.145381 -1.400516,1.721516 -0.473758,0.569254 -0.913225,1.166612 -1.299025,1.799479 -0.40032,0.674875 -0.795576,1.353569 -1.132054,2.063284 -0.26652,0.608886 -0.51095,1.226932 -0.773372,1.837603 -0.276751,0.610939 -0.521597,1.234956 -0.751268,1.865043 -0.190167,0.587626 -0.338516,1.190934 -0.361778,1.811171 -0.04252,0.602839 -0.04052,1.205764 -0.03599,1.809898 0,0.404497 0,0.808992 0,1.21349 0,1.414214 2.000002,1.414214 2.000002,0 z" />
    <path
       style="display:none;fill:#00ff00;stroke-width:1;stroke-linejoin:bevel;stroke-dashoffset:50"
       id="path11"
       d="m 25.560811,48.314051 c -0.279072,0.264081 -0.484808,0.582692 -0.646097,0.928563 -0.09803,0.280988 -0.05648,0.140894 -0.125976,0.419883 -0.316861,1.37826 1.632292,1.826372 1.949154,0.448112 v 0 c 0.0056,-0.04575 0.0028,-0.02431 0.0082,-0.06432 0.02948,-0.129021 0.143865,-0.223869 0.228891,-0.318026 1.000001,-1.000001 -0.414213,-2.414215 -1.414213,-1.414214 z" />
  </g>
  <g
     inkscape:groupmode="layer"
     id="layer10"
     inkscape:label="Capa 4"
     style="display:inline">
    <path
       d="M 64.000228,0 C 57.284345,35.950782 35.950782,57.284345 0,64.000228 h 8.2821818 7.2217812 6.275586 5.463749 4.756816 7.751982 3.137793 7.184057 1.801957 12.124325 V 51.875903 50.073946 42.889889 39.752096 32.000114 27.243298 21.779549 15.503963 8.2821818 Z"
       style="display:inline;opacity:1;fill:#995f3d;fill-opacity:1;stroke-width:2.64599;stroke-linejoin:bevel;stroke-dashoffset:50"
       id="path22" />
    <path
       style="fill:#5e462f;fill-opacity:1;stroke-width:1;stroke-linejoin:bevel;stroke-dashoffset:50"
       d="m 52.599388,33.180036 c -0.523405,-7.250395 0.578432,-8.459619 6.256344,-12.138231 l 1.118647,-4.486864 c -2.18022,-13.1636413 -14.419612,-2.902288 -5.592408,2.707603 0,0 2.090697,0.02377 2.037408,-1.509989 0.455679,0.03651 0.95771,0.981622 0.95771,0.981622 l -4.521341,2.760209 c -4.127037,3.201926 -1.335264,6.64158 -0.25636,11.68565 z"
       id="path23"
       sodipodi:nodetypes="cccccccc" />
    <path
       style="display:inline;fill:#5e462f;fill-opacity:1;stroke-width:1;stroke-linejoin:bevel;stroke-dashoffset:50"
       d="m 30.126199,54.066078 c -7.250395,-0.523405 -8.459618,0.578432 -12.13823,6.256344 l -4.486864,1.118647 c -13.16364131,-2.18022 -2.902288,-14.419612 2.707603,-5.592408 0,0 0.02377,2.090697 -1.509989,2.037408 0.03651,0.455679 0.981622,0.95771 0.981622,0.95771 l 2.760209,-4.521341 c 3.201926,-4.127037 6.641579,-1.335264 11.685649,-0.25636 z"
       id="path23-6"
       sodipodi:nodetypes="cccccccc" />
  </g>
  <g
     inkscape:groupmode="layer"
     id="layer9"
     inkscape:label="Capa 3"
     style="display:inline">
    <path
       d="M 64.000228,0 C 57.284345,35.950782 35.950782,57.284345 0,64.000228 H 8.2821818 C 39.580728,58.153419 58.153419,39.580728 64.000228,8.2821818 Z"
       style="display:inline;opacity:1;fill:#5e462f;fill-opacity:1;stroke-width:2.64599;stroke-linejoin:bevel;stroke-dashoffset:50"
       id="path17" />
    <path
       d="M 64.000228,15.503963 C 58.911283,42.745585 42.745585,58.911283 15.503963,64.000228 h 6.275586 C 45.49595,59.569822 59.569822,45.49595 64.000228,21.779549 Z"
       style="display:inline;fill:#5e462f;fill-opacity:1;stroke-width:2.00499;stroke-linejoin:bevel;stroke-dashoffset:50"
       id="path18" />
    <path
       d="M 64.000228,27.243298 C 60.14316,47.890563 47.890563,60.14316 27.243298,64.000228 h 4.756816 C 49.975505,60.642287 60.642287,49.975505 64.000228,32.000114 Z"
       style="display:inline;fill:#5e462f;fill-opacity:1;stroke-width:1.51964;stroke-linejoin:bevel;stroke-dashoffset:50"
       id="path19" />
    <path
       d="m 64.000228,39.752096 c -2.544472,13.620812 -10.62732,21.70366 -24.248132,24.248132 h 3.137793 C 54.74809,61.785025 61.785025,54.748089 64.000228,42.889889 Z"
       style="display:inline;fill:#5e462f;fill-opacity:1;stroke-width:1.00249;stroke-linejoin:bevel;stroke-dashoffset:50"
       id="path20" />
    <path
       d="m 64.000228,50.073946 c -1.461342,7.822709 -6.103573,12.46494 -13.926282,13.926282 h 1.801957 c 6.810406,-1.272236 10.852089,-5.31392 12.124325,-12.124325 z"
       style="display:inline;fill:#5e462f;fill-opacity:1;stroke-width:0.57575;stroke-linejoin:bevel;stroke-dashoffset:50"
       id="path21" />
  </g>
  <g
     inkscape:groupmode="layer"
     id="layer2"
     inkscape:label="Capa 2"
     style="display:inline">
    <path
       style="display:inline;fill:#995f3d;fill-opacity:1;stroke-width:1;stroke-linejoin:bevel;stroke-dashoffset:50"
       d="m 50.413591,43.187918 c 8.378004,-16.667156 -0.515345,-18.806457 -13.70386,-22.341442 2.730691,2.452096 -5.263869,7.395966 -8.803691,7.557886 -1.473714,2.928787 -1.239427,5.856962 -4.567953,3.571309 l 0.08305,2.657718 c -0.04268,5.655654 0.974674,6.795399 -4.817114,7.142618 l 2.491611,4.06963 3.903523,4.318794 c -2.84907,2.776673 0.0041,3.208374 -3.072986,6.56124 13.195925,0.789929 19.701739,-5.837946 28.48742,-13.537753 z"
       id="path12"
       sodipodi:nodetypes="cccccccccc" />
    <path
       style="display:none;fill:#525252;fill-opacity:1;stroke-width:1;stroke-linejoin:bevel;stroke-dashoffset:50"
       d="m 50.413591,43.187918 c 4.189002,-8.333578 3.264349,-10.593962 -0.66443,-8.36855 -3.623537,2.052511 1.368493,5.76624 -5.225765,3.998747 2.730691,2.452096 -1.02813,4.792718 -4.567952,4.954638 -1.473714,2.928787 -4.773069,2.594974 -3.814463,5.066275 l -4.140867,1.760822 c 0,0 3.358785,2.456456 -2.433003,2.803675 h -4.484896 c -0.03063,2.637937 -0.918942,0.60321 -3.156044,3.322146 13.195925,0.789929 19.701739,-5.837946 28.48742,-13.537753 z"
       id="path12-2"
       sodipodi:nodetypes="cscccccccc" />
    <path
       style="display:inline;fill:#5e462f;fill-opacity:1;stroke-width:1;stroke-linejoin:bevel;stroke-dashoffset:50"
       d="m 40.114934,32.889261 c -2.795769,0.459592 -3.735925,8.140713 -6.976512,6.478188 0,0 -0.202811,2.007542 0.996646,3.488256 -0.426428,1.293715 -3.239096,2.49161 -3.239096,2.49161 0,0 -2.076341,2.574666 -2.408555,2.574666 -0.332216,0 -3.405202,1.744125 -3.405202,1.744125 0,0 1.8646,-1.563115 2.989933,-2.906879 0.292559,-1.476258 -0.999464,-3.227822 0.332214,-4.73406 1.32886,0.622904 0.175547,-5.487634 2.450085,-7.557885 2.223462,0.257272 6.270552,-3.737415 6.270552,-3.737415 4.333795,-1.842786 5.404434,-1.011671 10.132552,0.249161 -3.927426,-0.07913 -4.739479,1.38013 -7.142617,1.910233 z"
       id="path13"
       sodipodi:nodetypes="ccccsccccccc" />
    <path
       style="fill:#995f3d;fill-opacity:1;stroke-width:1;stroke-linejoin:bevel;stroke-dashoffset:50"
       d="m 14.698719,57.886069 -2.491611,0.207635 c -6.1869413,-3.113397 2.148719,-4.431723 0.415269,-1.162751 -0.122062,0.230187 -1.162752,0.230187 -1.162752,0.230187 1.030471,0.468764 2.132454,0.563545 3.239094,0.724929 z"
       id="path24"
       sodipodi:nodetypes="ccscc" />
    <path
       style="display:inline;fill:#995f3d;fill-opacity:1;stroke-width:1;stroke-linejoin:bevel;stroke-dashoffset:50"
       d="m 56.419379,17.752555 0.207635,-2.491611 c -3.113397,-6.1869403 -4.431723,2.148719 -1.162751,0.415269 0.230187,-0.122062 0.230187,-1.162752 0.230187,-1.162752 0.468764,1.030471 0.563545,2.132454 0.724929,3.239094 z"
       id="path24-5"
       sodipodi:nodetypes="ccscc" />
  </g>
  <g
     id="g11"
     style="display:inline" />
</svg>
