<?xml version="1.0" encoding="UTF-8" standalone="no"?>
<!-- Created with Inkscape (http://www.inkscape.org/) -->

<svg
   width="64mm"
   height="64mm"
   viewBox="0 0 64 64"
   version="1.1"
   id="svg1"
   inkscape:version="1.4.2 (ebf0e94, 2025-05-08)"
   sodipodi:docname="deco pared2.svg"
   xmlns:inkscape="http://www.inkscape.org/namespaces/inkscape"
   xmlns:sodipodi="http://sodipodi.sourceforge.net/DTD/sodipodi-0.dtd"
   xmlns:xlink="http://www.w3.org/1999/xlink"
   xmlns="http://www.w3.org/2000/svg"
   xmlns:svg="http://www.w3.org/2000/svg">
  <sodipodi:namedview
     id="namedview1"
     pagecolor="#ffffff"
     bordercolor="#000000"
     borderopacity="0.25"
     inkscape:showpageshadow="2"
     inkscape:pageopacity="0.0"
     inkscape:pagecheckerboard="0"
     inkscape:deskcolor="#d1d1d1"
     inkscape:document-units="mm"
     inkscape:zoom="0.88016274"
     inkscape:cx="255.63454"
     inkscape:cy="154.51688"
     inkscape:window-width="1366"
     inkscape:window-height="655"
     inkscape:window-x="0"
     inkscape:window-y="0"
     inkscape:window-maximized="1"
     inkscape:current-layer="layer12" />
  <defs
     id="defs1" />
  <g
     inkscape:groupmode="layer"
     id="layer11"
     inkscape:label="capa3">
    <rect
       style="fill:#d9e9d2;stroke-width:1;stroke-linejoin:bevel;stroke-dashoffset:50;fill-opacity:1"
       id="rect12"
       width="64"
       height="64"
       x="0"
       y="0" />
  </g>
  <g
     inkscape:label="Capa 1"
     inkscape:groupmode="layer"
     id="layer1"
     style="display:none"
     sodipodi:insensitive="true">
    <path
       style="display:inline;fill:#ff0000;stroke-width:1;stroke-linejoin:bevel;stroke-dashoffset:50"
       d="m 31.140253,40.386675 2.019333,3.613544 3.826106,-3.188422 6.058003,-1.70049 C 54.223227,33.147836 60.517867,23.102663 54.840854,11.372038 l -0.531405,4.144948 c -1.935454,4.367738 -2.009939,3.301015 -6.695683,4.570071 -5.324719,1.597774 -6.948706,2.423944 -11.478318,6.058002 -2.137436,4.625013 -2.160847,5.059184 -1.700493,9.777825 l -1.913053,2.550737 z"
       id="path1"
       sodipodi:nodetypes="ccccccccccc" />
    <path
       style="display:inline;fill:#ff0000;stroke-width:1;stroke-linejoin:bevel;stroke-dashoffset:50"
       d="m 47.507485,6.8780342 -7.12081,2.444457 C 33.596208,13.545075 32.655815,14.446936 29.014638,20.90709 l 1.275369,5.314035 -3.294703,0.425125 c 0,0 -1.594211,-4.144949 -2.231895,-4.570071 C 24.125725,21.651054 19.130531,18.568914 19.130531,18.568914 15.250113,3.8656281 30.960739,2.3840301 42.299729,4.0084552 Z"
       id="path2"
       sodipodi:nodetypes="cccccsccc" />
    <path
       style="display:inline;fill:#ff0000;stroke-width:1;stroke-linejoin:bevel;stroke-dashoffset:50"
       d="m 36.774951,50.857654 c 0,0 -2.431207,-1.131421 -3.519945,-1.901536 -4.366632,-3.568107 -8.04566,-5.429247 -12.192938,-9.744515 -1.693042,-3.339944 -2.025723,-6.65232 -2.326961,-10.293678 l -2.524214,5.949744 c -1.447582,9.756676 0.386794,19.490026 11.096337,22.912408 l 5.991727,-2.192833 5.230682,0.178259 2.377426,-2.909869 z"
       id="path3"
       sodipodi:nodetypes="cscccccccc" />
    <rect
       style="display:inline;fill:#ff0000;stroke-width:1;stroke-linejoin:bevel;stroke-dashoffset:50"
       id="rect3"
       width="41.186413"
       height="54.292702"
       x="15.779571"
       y="3.4873734" />
    <path
       style="fill:#800000;stroke-width:1;stroke-linejoin:bevel;stroke-dashoffset:50"
       d="M 32.540739,52.982034 C 26.772022,52.859937 21.364589,51.542154 17.660678,36.072873 l -0.07515,6.387907 c 1.31205,4.992199 2.394816,7.22768 5.33578,11.122469 5.289564,2.047542 4.429403,1.504883 9.619431,-0.601215 z"
       id="path4"
       sodipodi:nodetypes="ccccc" />
    <path
       style="fill:#800000;stroke-width:1;stroke-linejoin:bevel;stroke-dashoffset:50"
       d="m 37.198255,37.410816 2.231895,-4.570072 c 3.778176,-5.076395 6.032201,-5.886516 11.478318,-8.715019 l 2.975859,-3.507264 -4.357511,2.657018 c -5.921622,1.983769 -8.402782,1.481807 -11.265754,7.33337 -0.880682,2.119117 -1.062807,6.801967 -1.062807,6.801967 z"
       id="path5"
       sodipodi:nodetypes="cccccsc" />
    <path
       style="fill:#800000;stroke-width:1;stroke-linejoin:bevel;stroke-dashoffset:50"
       d="m 40.907065,5.9369938 -7.889127,2.9309211 c -5.2044,4.2978281 -4.737488,4.5737991 -6.564497,10.8218621 0,0 -1.728276,-3.788684 -1.202429,-5.636387 0.703201,-2.470885 3.111983,-4.2749622 5.335779,-5.5612343 C 33.654538,6.717731 40.907065,5.9369938 40.907065,5.9369938 Z"
       id="path6"
       sodipodi:nodetypes="cccasc" />
  </g>
  <g
     inkscape:label="Capa 1 copia"
     inkscape:groupmode="layer"
     id="g12"
     style="display:none">
    <path
       style="display:inline;fill:#ff0000;stroke-width:1;stroke-linejoin:bevel;stroke-dashoffset:50"
       d="m 58.767476,73.752951 2.019333,3.613544 3.826106,-3.188422 6.058003,-1.70049 C 81.85045,66.514112 88.14509,56.468939 82.468077,44.738314 l -0.531405,4.144948 c -1.935454,4.367738 -2.009939,3.301015 -6.695683,4.570071 -5.324719,1.597774 -6.948706,2.423944 -11.478318,6.058002 -2.137436,4.625013 -2.160847,5.059184 -1.700493,9.777825 l -1.913053,2.550737 z"
       id="path7"
       sodipodi:nodetypes="ccccccccccc" />
    <path
       style="display:inline;fill:#ff0000;stroke-width:1;stroke-linejoin:bevel;stroke-dashoffset:50"
       d="m 75.134708,40.24431 -7.12081,2.444457 c -6.790467,4.222584 -7.73086,5.124445 -11.372037,11.584599 l 1.275369,5.314035 -3.294703,0.425125 c 0,0 -1.594211,-4.144949 -2.231895,-4.570071 C 51.752948,55.01733 46.757754,51.93519 46.757754,51.93519 42.877336,37.231904 58.587962,35.750306 69.926952,37.374731 Z"
       id="path8"
       sodipodi:nodetypes="cccccsccc" />
    <path
       style="display:inline;fill:#ff0000;stroke-width:1;stroke-linejoin:bevel;stroke-dashoffset:50"
       d="m 64.402174,84.22393 c 0,0 -2.431207,-1.131421 -3.519945,-1.901536 -4.366632,-3.568107 -8.04566,-5.429247 -12.192938,-9.744515 -1.693042,-3.339944 -2.025723,-6.65232 -2.326961,-10.293678 l -2.524214,5.949744 c -1.447582,9.756676 0.386794,19.490026 11.096337,22.912408 l 5.991727,-2.192833 5.230682,0.178259 2.377426,-2.909869 z"
       id="path9"
       sodipodi:nodetypes="cscccccccc" />
    <rect
       style="display:none;fill:#ff0000;stroke-width:1;stroke-linejoin:bevel;stroke-dashoffset:50"
       id="rect9"
       width="41.186413"
       height="54.292702"
       x="43.406792"
       y="36.853649" />
    <path
       style="display:inline;fill:#800000;stroke-width:1;stroke-linejoin:bevel;stroke-dashoffset:50"
       d="M 60.167962,86.34831 C 54.399245,86.226213 48.991812,84.90843 45.287901,69.439149 l -0.07515,6.387907 c 1.31205,4.992199 2.394816,7.22768 5.33578,11.122469 5.289564,2.047542 4.429403,1.504883 9.619431,-0.601215 z"
       id="path10"
       sodipodi:nodetypes="ccccc" />
    <path
       style="display:inline;fill:#800000;stroke-width:1;stroke-linejoin:bevel;stroke-dashoffset:50"
       d="m 64.825478,70.777092 2.231895,-4.570072 c 3.778176,-5.076395 6.032201,-5.886516 11.478318,-8.715019 l 2.975859,-3.507264 -4.357511,2.657018 c -5.921622,1.983769 -8.402782,1.481807 -11.265754,7.33337 -0.880682,2.119117 -1.062807,6.801967 -1.062807,6.801967 z"
       id="path11"
       sodipodi:nodetypes="cccccsc" />
    <path
       style="display:inline;fill:#800000;stroke-width:1;stroke-linejoin:bevel;stroke-dashoffset:50"
       d="m 68.534288,39.30327 -7.889127,2.930921 c -5.2044,4.297828 -4.737488,4.573799 -6.564497,10.821862 0,0 -1.728276,-3.788684 -1.202429,-5.636387 0.703201,-2.470885 3.111983,-4.274962 5.335779,-5.561235 3.067747,-1.774424 10.320274,-2.555161 10.320274,-2.555161 z"
       id="path12"
       sodipodi:nodetypes="cccasc" />
  </g>
  <use
     x="0"
     y="0"
     xlink:href="#g12"
     id="use12"
     transform="translate(-63.999996,-63.999998)"
     style="display:none" />
  <use
     x="0"
     y="0"
     xlink:href="#g12"
     id="use12-5"
     transform="translate(3.8146973e-6,-63.999998)"
     style="display:none" />
  <use
     x="0"
     y="0"
     xlink:href="#g12"
     id="use12-5-5"
     transform="translate(-63.999996)"
     style="display:none" />
  <g
     inkscape:groupmode="layer"
     id="layer10"
     inkscape:label="ñañañ"
     style="display:inline">
    <path
       d="m 64.000228,59.321444 c -0.07823,0.06245 -0.157708,0.125466 -0.237712,0.189652 -0.966983,2.092372 -1.501314,3.327476 -1.753898,4.489132 h 1.99161 z"
       style="display:inline;fill:#bde5ac;stroke-linejoin:bevel;stroke-dashoffset:50;fill-opacity:1"
       id="path18" />
    <path
       d="m 64.000228,36.868034 c -10.107517,-0.255812 -20.475604,2.816212 -17.242359,15.067297 0,0 4.995048,3.082155 5.632732,3.50728 0.637684,0.425122 2.231905,4.569747 2.231905,4.569747 l 3.294889,-0.424781 -1.275374,-5.314404 c 2.762557,-4.901312 3.970546,-6.602885 7.358207,-8.982914 v -4.30258 l -3.354834,1.246436 c -5.2044,4.297828 -4.737965,4.574015 -6.564974,10.822078 0,0 -1.727841,-3.788645 -1.201994,-5.636348 0.703201,-2.470885 3.111796,-4.275145 5.335592,-5.561418 1.413269,-0.817453 3.714905,-1.424225 5.78621,-1.840715 z"
       style="display:inline;fill:#bde5ac;stroke-linejoin:bevel;stroke-dashoffset:50;fill-opacity:1"
       id="path17" />
    <path
       d="m 46.513957,64.000228 c -0.05492,-0.564552 -0.103448,-1.136381 -0.151412,-1.716174 l -0.728121,1.716174 z"
       style="display:inline;fill:#bde5ac;stroke-linejoin:bevel;stroke-dashoffset:50;fill-opacity:1"
       id="path19" />
    <path
       d="M 0,10.688753 0.61288249,10.17819 6.6709106,8.4775187 C 10.937295,6.2017116 14.492453,3.3315227 16.942118,0 H 4.8369141 C 4.2713626,0.63700648 3.6853125,1.3631323 3.0571777,2.2071004 L 0.82527262,6.7768473 c 0,0 0.18080818,-4.6462024 1.05264888,-6.7768473 H 0 Z"
       style="display:inline;fill:#bde5ac;stroke-linejoin:bevel;stroke-dashoffset:50;fill-opacity:1"
       id="path14" />
    <path
       d="m 0,20.032369 v 5.02605 l 2.1569743,0.07338 2.3771159,-2.9099 -4.13204756,-1.99781 c 0,0 -0.15400495,-0.07208 -0.40204264,-0.19172 z"
       style="display:inline;fill:#bde5ac;stroke-linejoin:bevel;stroke-dashoffset:50;fill-opacity:1"
       id="path13" />
    <path
       d="m 62.008618,0 c -0.305732,1.4060877 -0.198345,2.7051704 0.05374,5.2890828 L 60.1493,7.8398315 58.767472,9.7528931 60.786987,13.366626 64.000228,10.688753 V 0 Z"
       style="display:inline;fill:#bde5ac;stroke-linejoin:bevel;stroke-dashoffset:50;fill-opacity:1"
       id="path16" />
    <path
       d="m 45.634424,0 -1.796273,4.2338501 c -1.447582,9.7566759 0.386937,19.4899149 11.09648,22.9122969 l 5.991366,-2.192631 3.074231,0.104903 v -5.02605 C 63.263188,19.676873 61.696671,18.8986 60.882072,18.322396 56.51544,14.754289 52.836813,12.893039 48.689535,8.577771 47.266066,5.7696276 46.803976,2.9810821 46.513957,0 Z M 45.287675,5.4389445 C 48.991586,20.908225 54.399187,22.22641 60.167904,22.348507 54.977876,24.454605 55.8379,24.997046 50.548336,22.949504 47.607372,19.054715 46.524794,16.819384 45.212744,11.827185 Z"
       style="display:inline;fill:#bde5ac;stroke-linejoin:bevel;stroke-dashoffset:50;fill-opacity:1"
       id="path15" />
    <path
       d="M 0,45.290259 C 1.0774325,44.5333 2.3751595,43.707782 4.0137085,42.688867 L 11.134721,40.244055 5.92677,37.37498 C 4.035662,37.104059 2.0231416,36.919237 0,36.868034 v 3.149678 C 2.4248249,39.530138 4.5340902,39.303027 4.5340902,39.303027 L 0,40.987679 Z"
       style="display:inline;fill:#bde5ac;stroke-linejoin:bevel;stroke-dashoffset:50;fill-opacity:1"
       id="path21" />
    <path
       d="m 16.942118,64.000228 c 2.320513,-3.155876 3.648869,-6.725761 3.65094,-10.596253 v -0.01809 c -0.0015,-2.744848 -0.669877,-5.640893 -2.124935,-8.647535 l -0.531233,4.144967 c -1.935454,4.367738 -2.009972,3.301208 -6.695716,4.570264 C 6.0105012,55.023139 4.3508076,55.847909 0,59.321444 v 4.678784 h 1.8779215 c 0.00341,-0.0083 0.00691,-0.01707 0.010335,-0.02532 2.862972,-5.851563 5.344357,-5.349633 11.2659795,-7.333402 l 4.357357,-2.656685 -2.976046,3.507279 c -4.5406827,2.358255 -6.8624407,3.313596 -9.6986332,6.50813 z"
       style="display:inline;fill:#bde5ac;stroke-linejoin:bevel;stroke-dashoffset:50;fill-opacity:1"
       id="path20" />
  </g>
  <g
     inkscape:groupmode="layer"
     id="layer12"
     inkscape:label="ñañañ 1">
    <path
       d="m 4.8369141,64.000228 c 2.8360997,-3.19435 5.1580591,-4.149932 9.6986329,-6.50813 l 2.976046,-3.507279 -4.357357,2.656685 c -5.9216227,1.983769 -8.4030072,1.481839 -11.2659792,7.333402 -0.00339,0.0082 -0.00695,0.01709 -0.010335,0.02532 z"
       style="fill:#a9df92;stroke-linejoin:bevel;stroke-dashoffset:50;fill-opacity:1"
       id="path26" />
    <path
       d="m 64.000228,40.017712 c -2.071246,0.416489 -4.372993,1.023292 -5.78621,1.840715 -2.223796,1.286273 -4.632391,3.090533 -5.335592,5.561418 -0.525847,1.847703 1.201994,5.636348 1.201994,5.636348 1.827009,-6.248063 1.360574,-6.52425 6.564974,-10.822078 l 3.354834,-1.246436 z"
       style="fill:#a9df92;stroke-linejoin:bevel;stroke-dashoffset:50;fill-opacity:1"
       id="path25" />
    <path
       d="m 0,40.987679 4.5340902,-1.684652 c 0,0 -2.1092653,0.227111 -4.5340902,0.714685 z"
       style="fill:#a9df92;stroke-linejoin:bevel;stroke-dashoffset:50;fill-opacity:1"
       id="path24" />
    <path
       d="m 45.287675,5.4389445 -0.07493,6.3882405 c 1.31205,4.992199 2.394628,7.22753 5.335592,11.122319 5.289564,2.047542 4.42954,1.505101 9.619568,-0.600997 C 54.399187,22.22641 48.991586,20.908225 45.287675,5.4389445 Z"
       style="fill:#a9df92;stroke-linejoin:bevel;stroke-dashoffset:50;fill-opacity:1"
       id="path23" />
    <path
       d="M 1.8779215,0 C 1.0060808,2.1306449 0.82527262,6.7768473 0.82527262,6.7768473 L 3.0571777,2.2071004 C 3.6853125,1.3631323 4.2713626,0.63700648 4.8369141,0 Z"
       style="fill:#a9df92;stroke-linejoin:bevel;stroke-dashoffset:50;fill-opacity:1"
       id="path22" />
  </g>
</svg>
