<?xml version="1.0" encoding="UTF-8" standalone="no"?>
<!-- Created with Inkscape (http://www.inkscape.org/) -->

<svg
   width="64mm"
   height="64mm"
   viewBox="0 0 64 64"
   version="1.1"
   id="svg1"
   inkscape:version="1.4.2 (ebf0e94, 2025-05-08)"
   sodipodi:docname="deco pared.svg"
   xmlns:inkscape="http://www.inkscape.org/namespaces/inkscape"
   xmlns:sodipodi="http://sodipodi.sourceforge.net/DTD/sodipodi-0.dtd"
   xmlns:xlink="http://www.w3.org/1999/xlink"
   xmlns="http://www.w3.org/2000/svg"
   xmlns:svg="http://www.w3.org/2000/svg">
  <sodipodi:namedview
     id="namedview1"
     pagecolor="#ffffff"
     bordercolor="#000000"
     borderopacity="0.25"
     inkscape:showpageshadow="2"
     inkscape:pageopacity="0.0"
     inkscape:pagecheckerboard="0"
     inkscape:deskcolor="#d1d1d1"
     inkscape:document-units="mm"
     inkscape:zoom="1.4142136"
     inkscape:cx="126.57211"
     inkscape:cy="112.42998"
     inkscape:window-width="1366"
     inkscape:window-height="655"
     inkscape:window-x="0"
     inkscape:window-y="0"
     inkscape:window-maximized="1"
     inkscape:current-layer="layer7" />
  <defs
     id="defs1" />
  <g
     inkscape:groupmode="layer"
     id="layer3"
     inkscape:label="Capa 3"
     style="display:inline">
    <rect
       style="display:inline;fill:#e9e5d2;stroke-width:1;stroke-linejoin:bevel;stroke-dashoffset:50;fill-opacity:1"
       id="rect11"
       width="63.999996"
       height="64"
       x="0"
       y="0" />
  </g>
  <g
     inkscape:label="Capa 1 copia"
     inkscape:groupmode="layer"
     id="g11"
     style="display:none"
     sodipodi:insensitive="true">
    <rect
       style="display:inline;fill:#800000;stroke-width:1;stroke-linejoin:bevel;stroke-dashoffset:50"
       id="rect8"
       width="32"
       height="32"
       x="-16"
       y="-63.286266"
       transform="rotate(135)" />
    <ellipse
       style="display:inline;fill:#800000;stroke-width:1.48186;stroke-linejoin:bevel;stroke-dashoffset:50"
       id="ellipse8"
       cx="33.43644"
       cy="33.43644"
       rx="22.627417"
       ry="22.627419" />
  </g>
  <g
     inkscape:groupmode="layer"
     id="layer8"
     inkscape:label="capa entero 2"
     style="display:inline">
    <path
       d="M 34.34054,0.08578288 A 32.000165,32.000167 0 0 1 50.04294,5.5717529 L 46.826599,0 H 34.254757 l 0.08527,0.08578288 a 32.000165,32.000167 0 0 0 5.17e-4,0 z"
       style="display:inline;fill:#ecdec9;fill-opacity:1;stroke-linejoin:bevel;stroke-dashoffset:50"
       id="path90" />
    <path
       d="M 64.000228,29.745988 V 0 h -7.970573 l 4.921663,18.368388 a 32.000165,32.000167 0 0 1 2.937289,10.961088 z"
       style="display:inline;fill:#ecdec9;fill-opacity:1;stroke-linejoin:bevel;stroke-dashoffset:50"
       id="path82" />
    <path
       d="M 3.0483927,18.368905 A 32.000165,32.000167 0 0 1 13.957288,5.5717529 L 17.174146,0 H 7.9705729 Z"
       style="display:inline;fill:#ecdec9;fill-opacity:1;stroke-linejoin:bevel;stroke-dashoffset:50"
       id="path83" />
    <path
       d="m 6.2388957,17.12712 a 29.74646,29.746463 0 0 0 -2.8587403,6.763928 29.74646,29.746463 0 0 0 -0.7172688,3.192053 29.74646,29.746463 0 0 0 0,5.17e-4 29.74646,29.746463 0 0 0 -0.3162598,2.569869 29.74646,29.746463 0 0 0 -0.093018,2.34611 l 0.0863,0.0863 A 32.000165,32.000167 0 0 1 18.04231,37.57135 L 9.3994263,22.601204 8.5741536,21.172351 6.7623779,18.033525 Z"
       style="display:inline;fill:#ecdec9;fill-opacity:1;stroke-linejoin:bevel;stroke-dashoffset:50"
       id="path86" />
    <path
       d="m 31.999597,2.2536092 a 29.74646,29.746463 0 0 0 -2.345593,0.093018 29.74646,29.746463 0 0 0 -2.570386,0.3162598 29.74646,29.746463 0 0 0 -5.17e-4,0 29.74646,29.746463 0 0 0 -3.563606,0.8325073 29.74646,29.746463 0 0 0 -1.142566,0.4103109 29.74646,29.746463 0 0 0 -2.286166,0.8500773 29.74646,29.746463 0 0 0 -1.321366,0.6614583 29.74646,29.746463 0 0 0 -1.633492,0.8562785 l 1.338936,4.9976277 0.476457,1.778186 9.99939,37.317102 a 32.000165,32.000167 0 0 1 2.937805,10.965222 l 0.111104,0.414445 z"
       style="display:inline;fill:#ecdec9;fill-opacity:1;stroke-linejoin:bevel;stroke-dashoffset:50"
       id="path85" />
    <path
       d="M 46.863289,6.2735189 45.524353,11.27063 45.048413,13.047782 35.046956,50.373153 A 32.000165,32.000167 0 0 1 45.956368,37.5729 l 8.644434,-14.972729 0.824755,-1.428853 1.812293,-3.13831 0.522965,-0.906405 A 29.74646,29.746463 0 0 0 53.333695,11.27063 29.74646,29.746463 0 0 0 50.395374,8.6371989 29.74646,29.746463 0 0 0 49.339107,7.8992594 29.74646,29.746463 0 0 0 47.135624,6.4161458 29.74646,29.746463 0 0 0 46.863289,6.2735189 Z"
       style="display:inline;fill:#ecdec9;fill-opacity:1;stroke-linejoin:bevel;stroke-dashoffset:50"
       id="path84" />
    <path
       d="m 14.863175,38.273116 -1.338936,4.997628 -0.476457,1.777152 -5.0777258,18.952332 h 9.2035728 l 5.426542,-9.399426 0.825273,-1.429371 1.811775,-3.138309 0.523482,-0.906405 a 29.74646,29.746463 0 0 0 -4.42867,-5.857523 29.74646,29.746463 0 0 0 -2.935738,-2.630848 29.74646,29.746463 0 0 0 -1.065051,-0.74414 29.74646,29.746463 0 0 0 -2.197282,-1.47898 29.74646,29.746463 0 0 0 -0.270785,-0.14211 z"
       style="display:inline;fill:#ecdec9;fill-opacity:1;stroke-linejoin:bevel;stroke-dashoffset:50"
       id="path89" />
    <path
       d="m 38.239526,49.127234 a 29.74646,29.746463 0 0 0 -2.858223,6.761344 29.74646,29.746463 0 0 0 -0.717786,3.193604 29.74646,29.746463 0 0 0 -0.316776,2.570386 29.74646,29.746463 0 0 0 -0.0925,2.347143 l 5.17e-4,5.17e-4 H 46.826599 L 41.39954,54.600285 40.574268,53.171431 38.762492,50.032605 Z"
       style="display:inline;fill:#ecdec9;fill-opacity:1;stroke-linejoin:bevel;stroke-dashoffset:50"
       id="path88" />
    <path
       d="m 64.000228,34.253723 a 29.74646,29.746463 0 0 0 -2.347144,0.09302 29.74646,29.746463 0 0 0 -2.570385,0.316259 29.74646,29.746463 0 0 0 -3.56154,0.831991 29.74646,29.746463 0 0 0 -1.16272,0.418062 29.74646,29.746463 0 0 0 -2.269112,0.843877 29.74646,29.746463 0 0 0 -1.317749,0.659391 29.74646,29.746463 0 0 0 -1.635042,0.857829 l 1.338936,4.996077 0.47594,1.778186 5.078243,18.951815 h 7.970573 z"
       style="display:inline;fill:#ecdec9;fill-opacity:1;stroke-linejoin:bevel;stroke-dashoffset:50"
       id="path87" />
  </g>
  <g
     inkscape:groupmode="layer"
     id="layer7"
     inkscape:label="capa entero"
     style="display:inline">
    <path
       d="M 50.043457,5.5722697 A 32.000165,32.000167 0 0 1 60.951318,18.368388 L 56.029655,0 h -9.203056 l 3.216341,5.5717529 a 32.000165,32.000167 0 0 0 5.17e-4,5.168e-4 z"
       style="display:inline;fill:#e8dac6;stroke-width:1.94808;stroke-linejoin:bevel;stroke-dashoffset:50;fill-opacity:1"
       id="path73" />
    <path
       d="M 0,29.745988 0.11162109,29.329476 A 32.000165,32.000167 0 0 1 3.0483927,18.368905 L 7.9705729,0 H 0 Z"
       style="display:inline;fill:#e8dac6;stroke-width:1.94808;stroke-linejoin:bevel;stroke-dashoffset:50;fill-opacity:1"
       id="path75" />
    <path
       d="M 13.957288,5.5717529 A 32.000165,32.000167 0 0 1 29.660722,0.08578288 L 29.745988,0 H 17.174146 Z"
       style="display:inline;fill:#e8dac6;stroke-width:1.94808;stroke-linejoin:bevel;stroke-dashoffset:50;fill-opacity:1"
       id="path74" />
    <path
       d="m 17.135905,6.2735189 a 29.74646,29.746463 0 0 0 -0.271818,0.1426269 29.74646,29.746463 0 0 0 -2.20555,1.4851807 29.74646,29.746463 0 0 0 -1.053166,0.7358724 29.74646,29.746463 0 0 0 -2.938322,2.6334311 29.74646,29.746463 0 0 0 -4.4281533,5.85649 l 0.5234822,0.906405 1.8117757,3.138309 0.8252727,1.42937 8.6428837,14.970146 a 32.000165,32.000167 0 0 1 10.908378,12.795085 l -9.99939,-37.317102 -0.476457,-1.77767 z"
       style="display:inline;fill:#e8dac6;stroke-width:1.94808;stroke-linejoin:bevel;stroke-dashoffset:50;fill-opacity:1"
       id="path81" />
    <path
       d="M 31.999597,2.2536092 V 61.746102 l 0.112655,-0.42013 a 32.000165,32.000167 0 0 1 2.934704,-10.952819 l 10.001457,-37.325371 0.47594,-1.777669 1.338936,-4.9965941 A 29.74646,29.746463 0 0 0 45.221529,5.4125895 29.74646,29.746463 0 0 0 43.911532,4.7573324 29.74646,29.746463 0 0 0 41.627433,3.907255 29.74646,29.746463 0 0 0 40.4797,3.4948771 29.74646,29.746463 0 0 0 36.917643,2.6628866 29.74646,29.746463 0 0 0 34.347257,2.3466268 a 29.74646,29.746463 0 0 0 -5.16e-4,0 29.74646,29.746463 0 0 0 -2.347144,-0.093018 z"
       style="display:inline;fill:#e8dac6;stroke-width:1.94808;stroke-linejoin:bevel;stroke-dashoffset:50;fill-opacity:1"
       id="path80" />
    <path
       d="m 57.760815,17.12712 -0.522965,0.905888 -1.812293,3.13831 -0.824755,1.428853 -8.644434,14.972729 a 32.000165,32.000167 0 0 1 15.703951,-5.487003 l 0.08578,-0.0863 a 29.74646,29.746463 0 0 0 -0.0925,-2.34611 29.74646,29.746463 0 0 0 -0.316776,-2.570902 29.74646,29.746463 0 0 0 -0.717786,-3.193087 29.74646,29.746463 0 0 0 -2.858224,-6.762378 z"
       style="display:inline;fill:#e8dac6;stroke-width:1.94808;stroke-linejoin:bevel;stroke-dashoffset:50;fill-opacity:1"
       id="path79" />
    <path
       d="m 0,34.253723 v 29.746505 h 7.9700562 l 5.0777258,-18.952332 0.476457,-1.777152 1.338936,-4.997628 A 29.74646,29.746463 0 0 0 13.220898,37.412187 29.74646,29.746463 0 0 0 11.912451,36.757446 29.74646,29.746463 0 0 0 9.6371379,35.910986 29.74646,29.746463 0 0 0 8.4764852,35.493958 29.74646,29.746463 0 0 0 4.9170125,34.663 29.74646,29.746463 0 0 0 2.3466268,34.346224 29.74646,29.746463 0 0 0 0,34.253723 Z"
       style="display:inline;fill:#e8dac6;stroke-width:1.94808;stroke-linejoin:bevel;stroke-dashoffset:50;fill-opacity:1"
       id="path78" />
    <path
       d="m 25.760701,49.126717 -0.523482,0.906405 -1.811775,3.138309 -0.825273,1.429371 -5.426542,9.399426 h 12.571842 l 5.17e-4,-5.17e-4 a 29.74646,29.746463 0 0 0 -0.0925,-2.345593 29.74646,29.746463 0 0 0 0,-5.17e-4 29.74646,29.746463 0 0 0 -0.31626,-2.570386 29.74646,29.746463 0 0 0 -0.717269,-3.190503 29.74646,29.746463 0 0 0 -5.16e-4,-0.001 29.74646,29.746463 0 0 0 -2.858741,-6.764962 z"
       style="display:inline;fill:#e8dac6;stroke-width:1.94808;stroke-linejoin:bevel;stroke-dashoffset:50;fill-opacity:1"
       id="path77" />
    <path
       d="m 49.136536,38.27415 a 29.74646,29.746463 0 0 0 -0.272852,0.143143 29.74646,29.746463 0 0 0 -2.214335,1.490865 29.74646,29.746463 0 0 0 -1.043864,0.729155 29.74646,29.746463 0 0 0 -2.939872,2.634464 29.74646,29.746463 0 0 0 -4.426087,5.855457 l 0.522966,0.905371 1.811776,3.138826 0.825272,1.428854 5.427059,9.399943 h 9.203056 l -5.078243,-18.951815 -0.47594,-1.778186 z"
       style="display:inline;fill:#e8dac6;stroke-width:1.94808;stroke-linejoin:bevel;stroke-dashoffset:50;fill-opacity:1"
       id="path76" />
  </g>
  <g
     id="g90"
     style="display:none">
    <g
       inkscape:groupmode="layer"
       id="layer2"
       inkscape:label="Capa 2"
       style="display:none">
      <use
         x="0"
         y="0"
         xlink:href="#g37"
         id="use37-7"
         transform="translate(32.000403,-31.999856)"
         style="display:inline" />
      <use
         x="0"
         y="0"
         xlink:href="#g37"
         id="use37-7-8"
         transform="translate(-31.999597,-31.999856)"
         style="display:inline" />
      <g
         id="g37"
         style="display:inline">
        <path
           d="M 31.999634,0 A 32.000165,32.000167 0 0 0 7.4999999e-7,31.999634 L 31.999634,64 63.999999,31.999634 A 32.000165,32.000167 0 0 0 31.999634,0 Z"
           style="display:inline;fill:#ffffff;stroke-width:2.09568;stroke-linejoin:bevel;stroke-dashoffset:50"
           id="path3-6-7-1" />
        <path
           d="M 31.99966,2.253692 A 29.74646,29.746463 0 0 0 2.253691,31.999661 L 31.99966,61.746308 61.746309,31.999661 A 29.74646,29.746463 0 0 0 31.99966,2.253692 Z"
           style="display:none;fill:#800000;stroke-width:1.94808;stroke-linejoin:bevel;stroke-dashoffset:50"
           id="path3-4-6" />
        <g
           id="g33">
          <path
             d="M 31.999597,61.746102 61.746102,31.999597 A 29.74646,29.746463 0 0 0 57.760815,17.126603 Z"
             style="display:inline;fill:#800000;stroke-width:1.94808;stroke-linejoin:bevel;stroke-dashoffset:50"
             id="path33" />
          <path
             d="M 31.999597,2.2536092 V 61.746102 L 46.872591,6.2388957 A 29.74646,29.746463 0 0 0 31.999597,2.2536092 Z"
             style="display:inline;fill:#800000;stroke-width:1.94808;stroke-linejoin:bevel;stroke-dashoffset:50"
             id="path32" />
          <path
             d="M 31.999597,61.746102 17.126603,6.2394124 A 29.74646,29.746463 0 0 0 6.2388957,17.12712 Z"
             style="display:inline;fill:#800000;stroke-width:1.94808;stroke-linejoin:bevel;stroke-dashoffset:50"
             id="path31" />
        </g>
        <g
           id="g36"
           style="display:inline">
          <path
             d="M 31.999597,61.746102 57.760815,17.126603 A 29.74646,29.746463 0 0 0 46.872591,6.2388957 Z"
             style="fill:#b3b3b3;stroke-linejoin:bevel;stroke-dashoffset:50"
             id="path36" />
          <path
             d="M 31.999597,2.2536092 A 29.74646,29.746463 0 0 0 17.126603,6.2394124 L 31.999597,61.746102 Z"
             style="fill:#b3b3b3;stroke-linejoin:bevel;stroke-dashoffset:50"
             id="path35" />
          <path
             d="M 31.999597,61.746102 6.2388957,17.12712 A 29.74646,29.746463 0 0 0 2.2536092,31.999597 Z"
             style="fill:#b3b3b3;stroke-linejoin:bevel;stroke-dashoffset:50"
             id="path34" />
        </g>
      </g>
      <use
         x="0"
         y="0"
         xlink:href="#g37"
         id="use37"
         transform="translate(-31.999999,32)"
         style="display:inline" />
      <use
         x="0"
         y="0"
         xlink:href="#use37-7"
         id="use38"
         transform="translate(0,64)" />
    </g>
    <g
       inkscape:label="Capa 1"
       inkscape:groupmode="layer"
       id="layer1"
       style="display:none"
       sodipodi:insensitive="true">
      <rect
         style="display:inline;fill:#800000;stroke-width:1;stroke-linejoin:bevel;stroke-dashoffset:50"
         id="rect1"
         width="32"
         height="32"
         x="-16"
         y="-63.286266"
         transform="rotate(135)" />
      <ellipse
         style="display:inline;fill:#800000;stroke-width:1.48186;stroke-linejoin:bevel;stroke-dashoffset:50"
         id="path1"
         cx="33.43644"
         cy="33.43644"
         rx="22.627417"
         ry="22.627419" />
    </g>
  </g>
</svg>
