<?xml version="1.0" encoding="UTF-8" standalone="no"?>
<!-- Created with Inkscape (http://www.inkscape.org/) -->

<svg
   width="64mm"
   height="64mm"
   viewBox="0 0 64 64"
   version="1.1"
   id="svg1"
   inkscape:export-filename="plantaej.svg"
   inkscape:export-xdpi="96"
   inkscape:export-ydpi="96"
   sodipodi:docname="espimaca.svg"
   inkscape:version="1.4.2 (ebf0e94, 2025-05-08)"
   xmlns:inkscape="http://www.inkscape.org/namespaces/inkscape"
   xmlns:sodipodi="http://sodipodi.sourceforge.net/DTD/sodipodi-0.dtd"
   xmlns="http://www.w3.org/2000/svg"
   xmlns:svg="http://www.w3.org/2000/svg">
  <sodipodi:namedview
     id="namedview1"
     pagecolor="#ffffff"
     bordercolor="#000000"
     borderopacity="0.25"
     inkscape:showpageshadow="2"
     inkscape:pageopacity="0.0"
     inkscape:pagecheckerboard="0"
     inkscape:deskcolor="#d1d1d1"
     inkscape:document-units="mm"
     inkscape:export-bgcolor="#ffffff00"
     inkscape:zoom="1.2401565"
     inkscape:cx="101.60008"
     inkscape:cy="149.98107"
     inkscape:window-width="1366"
     inkscape:window-height="655"
     inkscape:window-x="0"
     inkscape:window-y="0"
     inkscape:window-maximized="1"
     inkscape:current-layer="layer2">
    <inkscape:page
       x="0"
       y="0"
       width="64"
       height="64"
       id="page1"
       margin="0"
       bleed="0" />
  </sodipodi:namedview>
  <defs
     id="defs1" />
  <g
     inkscape:label="Capa 1"
     inkscape:groupmode="layer"
     id="layer1"
     style="display:inline">
    <rect
       style="display:inline;fill:#ffffff;fill-opacity:1;stroke-width:0.840579;stroke-linejoin:bevel;stroke-dashoffset:50"
       id="rect6-3"
       width="53.79705"
       height="53.79705"
       x="5.1014748"
       y="5.1014748" />
    <rect
       style="display:inline;fill:#ffffff;fill-opacity:1;stroke-width:1;stroke-linejoin:bevel;stroke-dashoffset:50"
       id="rect6"
       width="64"
       height="64"
       x="0"
       y="0" />
    <path
       style="display:none;fill:#8a993d;fill-opacity:1;stroke-width:1;stroke-linejoin:bevel;stroke-dashoffset:50"
       d="m 34.743681,27.485266 c 3.549188,5.768402 -3.485179,4.960069 -1.088982,11.228904 l 3.330018,4.567704 -8.89541,10e-7 C 31.258502,32.445335 24.33256,31.839134 29.197511,27.485266 24.351165,31.568428 25.563831,8.6818292 30.231632,8.0316175 36.284165,8.7550085 41.456651,27.88651 34.743681,27.485266 Z"
       id="path2"
       sodipodi:nodetypes="ccccccc" />
    <path
       style="display:none;fill:#8a993d;fill-opacity:1;stroke-width:1;stroke-linejoin:bevel;stroke-dashoffset:50"
       d="m 38.794536,31.291471 c 0.189486,6.770177 -5.498288,2.552956 -6.557538,9.180025 l 0.600029,5.620757 -7.703652,-4.447704 c 8.162873,-7.800122 2.467932,-11.788078 8.858037,-13.126163 -6.238639,1.112949 6.25486,-18.101094 10.6224,-16.330294 4.879952,3.652742 -0.206295,22.807352 -5.819276,19.103379 z"
       id="path2-9"
       sodipodi:nodetypes="ccccccc" />
    <path
       style="display:none;fill:#8a993d;fill-opacity:1;stroke-width:1;stroke-linejoin:bevel;stroke-dashoffset:50"
       d="m 24.394387,30.258351 c -0.189486,6.770177 5.498288,2.552956 6.557538,9.180025 l -0.600029,5.620757 7.703651,-4.447704 c -8.162872,-7.800122 -2.467932,-11.788078 -8.858036,-13.126163 6.238638,1.112949 -6.25486,-18.1010947 -10.6224,-16.330294 -4.879952,3.652742 0.206295,22.807352 5.819276,19.103379 z"
       id="path2-9-2"
       sodipodi:nodetypes="ccccccc" />
    <path
       style="display:inline;fill:#ffffff;fill-opacity:1;stroke-width:1;stroke-linejoin:bevel;stroke-dashoffset:50"
       d="m 0,34.039907 c 18.98249,13.597396 42.885915,-6.177522 63.999998,0 v 27.77682 H 0 Z"
       id="path1-5"
       sodipodi:nodetypes="ccccc" />
    <path
       style="display:none;fill:#5e462f;stroke-width:1;stroke-linejoin:bevel;stroke-dashoffset:50"
       d="m 0,36.223178 c 18.98249,13.597396 42.885915,-6.177522 63.999998,0 v 27.77682 H 0 Z"
       id="path1"
       sodipodi:nodetypes="ccccc" />
    <path
       d="M 5.1014974,39.069967 V 58.89873 H 58.89873 V 35.210254 C 40.990327,33.199494 21.574716,45.898029 5.1014974,39.069967 Z"
       style="display:inline;fill:#5e462f;stroke-linejoin:bevel;stroke-dashoffset:50"
       id="path7" />
    <path
       d="m 39.544873,37.078357 c 0.563022,0.436251 1.142664,0.877596 1.737362,1.326534 6.100696,8.645949 -7.401821,12.982125 -12.227678,7.72821 l -3.98942,-5.885945 C 18.14578,41.435924 11.408027,41.68399 5.1014974,39.069967 V 58.89873 H 58.89873 V 35.210254 c -6.328454,-0.710561 -12.845328,0.415755 -19.353857,1.868103 z"
       style="display:none;fill:#5e462f;stroke-linejoin:bevel;stroke-dashoffset:50"
       id="path13" />
    <path
       d="M 0,0 V 64.000228 H 64.000228 V 0 Z M 5.1014974,5.1014974 H 58.89873 V 58.89873 H 5.1014974 Z"
       style="display:none;fill:#ffffff;stroke-linejoin:bevel;stroke-dashoffset:50"
       id="path6" />
    <ellipse
       style="display:none;fill:#bc2929;fill-opacity:1;stroke-width:1.14174;stroke-linejoin:bevel;stroke-dashoffset:50"
       id="path4"
       cx="32.841347"
       cy="42.83654"
       rx="10.182043"
       ry="7.7551322" />
    <path
       style="display:none;fill:#bc2929;fill-opacity:1;stroke-width:1.14174;stroke-linejoin:bevel;stroke-dashoffset:50"
       d="m 40.558207,47.895856 c -2.807403,2.48406 -4.077163,1.655794 -7.716992,8.588368 1.31e-4,-5.892554 -5.722721,-6.572108 -8.378351,-9.240972 z"
       id="path5"
       sodipodi:nodetypes="cccc" />
  </g>
  <g
     inkscape:groupmode="layer"
     id="layer2"
     inkscape:label="Capa 2"
     style="display:inline">
    <path
       style="display:none;fill:#8a993d;fill-opacity:1;stroke:none;stroke-width:1;stroke-linejoin:bevel;stroke-dashoffset:50"
       d="m 37.794647,37.475781 2.189212,-2.678072 7.379113,-5.995901 5.333669,-6.879374 L 50.13648,18.134472 44.589467,18.881185 42.669346,7.5738087 38.40241,5.1014746 h -6.402411 l -1.998729,3.5390677 -4.719683,-0.9600602 -2.666834,9.8139489 -4.123872,-3.808814 -2.703223,4.555528 0.64004,5.547015 -3.85999,1.536651 2.89993,7.483522 4.936371,5.895612 0.219799,2.16122 z"
       id="path25" />
    <path
       d="M 32.000114,5.1014974 30.00127,8.6402995 25.281661,7.6806681 22.61464,17.494539 18.490861,13.68547 c 0,0 -2.334578,2.828895 -2.703194,4.555794 -0.388543,1.820253 0.640271,5.546948 0.640271,5.546948 l -3.86023,1.536857 c 0,0 1.539895,5.179674 2.900082,7.483264 1.303198,2.207073 4.936133,5.895764 4.936133,5.895764 6.386384,-0.622607 12.981035,-2.44942 19.579683,-3.906221 5.728491,-3.833756 8.607294,-7.579877 12.712919,-12.8757 L 50.136475,18.134294 44.589526,18.881018 42.66923,7.5736979 C 38.118474,4.4744445 37.424302,5.1014974 32.000114,5.1014974 Z"
       style="display:none;opacity:0.399;fill:#7ba441;fill-opacity:1;stroke-linejoin:bevel;stroke-dashoffset:50"
       id="path26"
       sodipodi:nodetypes="cccccsccsccccccc" />
    <path
       style="display:none;fill:#63ae3e;fill-opacity:1;stroke:none;stroke-width:0.977391;stroke-linejoin:bevel;stroke-dashoffset:50"
       d="m 31.076937,38.704096 3.274499,-0.405795 C 31.364691,24.844967 50.832046,29.83402 48.802858,16.069716 48.412419,14.710171 45.710252,13.04331 45.710252,13.04331 l -2.251149,0.365215 C 42.352437,9.5417883 39.154045,1.8542537 32.000113,6.603744 29.246728,9.7165887 29.783316,12.257478 28.964911,15.349144 27.495629,13.477678 29.616266,10.09266 22.25169,6.6037223 16.409894,9.3793675 18.041651,13.713105 20.139665,18.807892 l -2.187454,2.233777 c 1.087347,10.283947 12.098928,5.488385 13.124726,17.662427 z"
       id="path28"
       sodipodi:nodetypes="ccacccscccc" />
    <path
       d="m 30.832227,36.904724 c 1.07063,-0.238873 2.143917,-0.487249 3.218925,-0.738456 C 33.518647,25.353709 50.715976,29.047831 48.802706,16.06982 48.412267,14.710275 45.710388,13.043132 45.710388,13.043132 l -2.251542,0.365352 C 42.35218,9.5417472 39.154046,1.854241 32.000114,6.6037313 29.246729,9.716576 29.783562,12.257268 28.965157,15.348934 27.495875,13.477468 29.616448,10.092669 22.251872,6.6037313 16.410076,9.3793765 18.041842,13.712851 20.139856,18.807638 l -2.187463,2.233972 c 1.029656,9.738319 10.958135,5.954701 12.879834,15.863114 z"
       style="display:inline;fill:#63ae3e;stroke-width:0.977391;stroke-linejoin:bevel;stroke-dashoffset:50"
       id="path29" />
  </g>
</svg>
