<?xml version="1.0" encoding="UTF-8" standalone="no"?>
<!-- Created with Inkscape (http://www.inkscape.org/) -->

<svg
   width="64mm"
   height="64mm"
   viewBox="0 0 64 64"
   version="1.1"
   id="svg1"
   inkscape:export-filename="plantaej.svg"
   inkscape:export-xdpi="96"
   inkscape:export-ydpi="96"
   sodipodi:docname="girasol.svg"
   inkscape:version="1.4.2 (ebf0e94, 2025-05-08)"
   xmlns:inkscape="http://www.inkscape.org/namespaces/inkscape"
   xmlns:sodipodi="http://sodipodi.sourceforge.net/DTD/sodipodi-0.dtd"
   xmlns="http://www.w3.org/2000/svg"
   xmlns:svg="http://www.w3.org/2000/svg">
  <sodipodi:namedview
     id="namedview1"
     pagecolor="#ffffff"
     bordercolor="#000000"
     borderopacity="0.25"
     inkscape:showpageshadow="2"
     inkscape:pageopacity="0.0"
     inkscape:pagecheckerboard="0"
     inkscape:deskcolor="#d1d1d1"
     inkscape:document-units="mm"
     inkscape:export-bgcolor="#ffffff00"
     inkscape:zoom="1.2401565"
     inkscape:cx="122.56518"
     inkscape:cy="98.374681"
     inkscape:window-width="1366"
     inkscape:window-height="655"
     inkscape:window-x="0"
     inkscape:window-y="0"
     inkscape:window-maximized="1"
     inkscape:current-layer="layer2">
    <inkscape:page
       x="0"
       y="0"
       width="64"
       height="64"
       id="page1"
       margin="0"
       bleed="0" />
  </sodipodi:namedview>
  <defs
     id="defs1" />
  <g
     inkscape:label="Capa 1"
     inkscape:groupmode="layer"
     id="layer1"
     style="display:inline">
    <rect
       style="display:inline;fill:#ffffff;fill-opacity:1;stroke-width:0.840579;stroke-linejoin:bevel;stroke-dashoffset:50"
       id="rect6-3"
       width="53.79705"
       height="53.79705"
       x="5.1014748"
       y="5.1014748" />
    <rect
       style="display:inline;fill:#ffffff;fill-opacity:1;stroke-width:1;stroke-linejoin:bevel;stroke-dashoffset:50"
       id="rect6"
       width="64"
       height="64"
       x="1.6093254e-06"
       y="0" />
    <path
       style="display:none;fill:#8a993d;fill-opacity:1;stroke-width:1;stroke-linejoin:bevel;stroke-dashoffset:50"
       d="m 34.743681,27.485266 c 3.549188,5.768402 -3.485179,4.960069 -1.088982,11.228904 l 3.330018,4.567704 -8.89541,10e-7 C 31.258502,32.445335 24.33256,31.839134 29.197511,27.485266 24.351165,31.568428 25.563831,8.6818292 30.231632,8.0316175 36.284165,8.7550085 41.456651,27.88651 34.743681,27.485266 Z"
       id="path2"
       sodipodi:nodetypes="ccccccc" />
    <path
       style="display:none;fill:#8a993d;fill-opacity:1;stroke-width:1;stroke-linejoin:bevel;stroke-dashoffset:50"
       d="m 38.794536,31.291471 c 0.189486,6.770177 -5.498288,2.552956 -6.557538,9.180025 l 0.600029,5.620757 -7.703652,-4.447704 c 8.162873,-7.800122 2.467932,-11.788078 8.858037,-13.126163 -6.238639,1.112949 6.25486,-18.101094 10.6224,-16.330294 4.879952,3.652742 -0.206295,22.807352 -5.819276,19.103379 z"
       id="path2-9"
       sodipodi:nodetypes="ccccccc" />
    <path
       style="display:none;fill:#8a993d;fill-opacity:1;stroke-width:1;stroke-linejoin:bevel;stroke-dashoffset:50"
       d="m 24.394387,30.258351 c -0.189486,6.770177 5.498288,2.552956 6.557538,9.180025 l -0.600029,5.620757 7.703651,-4.447704 c -8.162872,-7.800122 -2.467932,-11.788078 -8.858036,-13.126163 6.238638,1.112949 -6.25486,-18.1010947 -10.6224,-16.330294 -4.879952,3.652742 0.206295,22.807352 5.819276,19.103379 z"
       id="path2-9-2"
       sodipodi:nodetypes="ccccccc" />
    <path
       style="display:inline;fill:#ffffff;fill-opacity:1;stroke-width:1;stroke-linejoin:bevel;stroke-dashoffset:50"
       d="m 0,34.039907 c 18.98249,13.597396 42.885915,-6.177522 63.999998,0 v 27.77682 H 0 Z"
       id="path1-5"
       sodipodi:nodetypes="ccccc" />
    <path
       style="display:none;fill:#5e462f;stroke-width:1;stroke-linejoin:bevel;stroke-dashoffset:50"
       d="m 0,36.223178 c 18.98249,13.597396 42.885915,-6.177522 63.999998,0 v 27.77682 H 0 Z"
       id="path1"
       sodipodi:nodetypes="ccccc" />
    <path
       d="M 5.1014974,39.069967 V 58.89873 H 58.89873 V 35.210254 C 40.990327,33.199494 21.574716,45.898029 5.1014974,39.069967 Z"
       style="display:inline;fill:#5e462f;stroke-linejoin:bevel;stroke-dashoffset:50"
       id="path7" />
    <path
       d="m 38.601261,37.291264 c 0.631031,2.564757 1.733594,4.885641 3.991488,7.554061 C 35.831966,43.324953 32.410843,41.848863 30.37334,39.189856 21.599332,41.125165 13.011322,42.348547 5.1014974,39.069967 V 58.89873 H 58.89873 V 35.210254 C 52.264315,34.46534 45.423151,35.73935 38.601261,37.291264 Z"
       style="display:none;fill:#5e462f;stroke-linejoin:bevel;stroke-dashoffset:50"
       id="path14" />
    <path
       d="m 39.544873,37.078357 c 0.563022,0.436251 1.142664,0.877596 1.737362,1.326534 6.100696,8.645949 -7.401821,12.982125 -12.227678,7.72821 l -3.98942,-5.885945 C 18.14578,41.435924 11.408027,41.68399 5.1014974,39.069967 V 58.89873 H 58.89873 V 35.210254 c -6.328454,-0.710561 -12.845328,0.415755 -19.353857,1.868103 z"
       style="display:none;fill:#5e462f;stroke-linejoin:bevel;stroke-dashoffset:50"
       id="path13" />
    <path
       d="M 0,0 V 64.000228 H 64.000228 V 0 Z M 5.1014974,5.1014974 H 58.89873 V 58.89873 H 5.1014974 Z"
       style="display:none;fill:#ffffff;stroke-linejoin:bevel;stroke-dashoffset:50"
       id="path6" />
    <ellipse
       style="display:none;fill:#bc2929;fill-opacity:1;stroke-width:1.14174;stroke-linejoin:bevel;stroke-dashoffset:50"
       id="path4"
       cx="32.841347"
       cy="42.83654"
       rx="10.182043"
       ry="7.7551322" />
    <path
       style="display:none;fill:#bc2929;fill-opacity:1;stroke-width:1.14174;stroke-linejoin:bevel;stroke-dashoffset:50"
       d="m 40.558207,47.895856 c -2.807403,2.48406 -4.077163,1.655794 -7.716992,8.588368 1.31e-4,-5.892554 -5.722721,-6.572108 -8.378351,-9.240972 z"
       id="path5"
       sodipodi:nodetypes="cccc" />
  </g>
  <g
     inkscape:groupmode="layer"
     id="layer2"
     inkscape:label="Capa 2"
     style="display:inline">
    <rect
       style="display:none;fill:#8a993d;fill-opacity:1;stroke-width:1;stroke-linejoin:bevel;stroke-dashoffset:50"
       id="rect9"
       width="7.4662108"
       height="38.554775"
       x="5.1014972"
       y="5.1014748" />
    <path
       style="display:none;fill:#ff0000;fill-opacity:1;stroke-width:1.23314;stroke-linejoin:bevel;stroke-dashoffset:50"
       d="m 22.710348,8.7564263 5.202479,0.09293 -1.972822,2.5626017 c 2.629029,1.186779 1.745737,1.787569 1.38424,4.498782 0.274154,11.392065 5.578594,16.168474 13.95776,22.493913 6.100696,8.645949 -7.401603,12.982591 -12.22746,7.728676 l -4.50655,-6.648984 C 17.95276,31.901028 12.723132,11.896986 21.556577,10.950545 Z"
       id="path10-4"
       sodipodi:nodetypes="ccccccccc" />
    <path
       style="display:none;fill:#8a993d;fill-opacity:1;stroke-width:1;stroke-linejoin:bevel;stroke-dashoffset:50"
       d="M 12.567708,8.8635416 C 22.504146,13.62926 29.298286,12.502426 39.555208,10.451042 44.908612,8.9545577 50.617299,9.7367547 54.901041,13.361458 47.241522,14.362004 47.184168,18.53601 40.481249,13.096875 26.269647,16.838308 22.980926,14.991648 12.567708,11.90625 Z"
       id="path9"
       sodipodi:nodetypes="cccccc" />
    <path
       style="display:none;opacity:0.319;fill:#ff0000;fill-opacity:1;stroke:none;stroke-width:1.3061;stroke-linejoin:bevel;stroke-dashoffset:50"
       d="m 30.967768,13.713561 1.379253,0.49259 c 1.154622,2.144049 1.5584,2.415673 3.645168,3.842203 l 1.280734,8.669586 c 0.945073,8.305721 0.49285,12.422534 5.319975,18.127317 C 28.684218,41.71746 28.910251,38.777296 26.238902,25.338687 l -0.492586,-7.191815 c 1.443715,-0.944573 2.281198,-2.12076 3.152574,-3.546648 z"
       id="path3-6"
       sodipodi:nodetypes="ccccccccc" />
    <rect
       style="display:none;fill:#8a993d;fill-opacity:1;stroke-width:1.98792;stroke-linejoin:bevel;stroke-dashoffset:50"
       id="rect1"
       width="7.4662104"
       height="26.090397"
       x="19.359123"
       y="32.808334" />
    <path
       d="M 26.825236,58.89873 V 39.926762 c -2.513677,0.482688 -5.006355,0.863105 -7.466211,1.051099 V 58.89873 Z"
       style="display:inline;fill:#8a993d;stroke-width:1.98792;stroke-linejoin:bevel;stroke-dashoffset:50"
       id="path11" />
    <path
       style="display:none;fill:#d3c624;fill-opacity:1;stroke-width:1;stroke-linejoin:bevel;stroke-dashoffset:50"
       d="m 26.561669,5.1014746 c 2.426089,2.4089608 2.885826,2.7198066 5.973707,3.4323945 0.405925,3.8092019 1.287076,2.9340759 4.906975,4.4802809 -0.152618,2.416694 1.311742,4.006737 2.666833,5.867035 -0.759767,1.355729 1.269107,3.193239 0.426694,4.164839 -2.226313,0.252874 -2.832443,1.874523 -3.626895,3.622317 l 1.280081,2.666833 c -1.667539,1.297606 -1.990407,1.530391 -2.24014,3.473159 l -3.32803,3.690279 -16.95802,2.421977 C 13.73828,36.538631 11.591711,34.914812 8.9605624,33.495437 10.518297,29.807603 7.7995073,29.07192 5.1014746,26.134974 c 3.3157563,-2.2466 3.1213287,-4.995594 3.6457413,-8.640542 1.7347251,-1.446916 1.9062371,-3.120811 2.3994281,-5.226995 5.115889,-0.189217 4.043172,1.150244 5.601074,-3.3068776 1.751606,-0.1174061 2.701251,-0.6123074 3.946915,-1.7067736 3.528197,2.278942 2.827187,0.948543 5.867036,-2.1523112 z"
       id="path8"
       sodipodi:nodetypes="ccccscccccccccccc" />
    <path
       d="m 26.561686,5.1014974 c -3.039849,3.1008542 -2.338628,4.4312654 -5.866825,2.1523234 -1.245664,1.0944662 -2.19544,1.5894665 -3.947046,1.7068726 -1.557902,4.4571216 -0.48532,3.1175576 -5.601209,3.3067746 -0.493191,2.106184 -0.664611,3.780155 -2.3993363,5.227071 -0.5244126,3.644948 -0.330016,6.3937 -3.6457723,8.6403 2.6980327,2.936946 5.4169306,3.672957 3.859196,7.360791 2.6303876,1.418964 4.7767166,3.042094 6.7008826,5.422925 0.0035,4.2e-5 0.0069,9.91e-4 0.01034,0.001 1.219784,0.01465 2.449197,-0.02993 3.687113,-0.12454 2.459856,-0.188005 4.952534,-0.568913 7.466211,-1.051615 1.921343,-0.368956 3.85491,-0.797511 5.795512,-1.244886 L 35.948714,32.8083 c 0.249733,-1.942768 0.572634,-2.175567 2.240173,-3.473173 l -1.280025,-2.66702 c 0.794452,-1.747794 1.400856,-3.369127 3.627169,-3.622001 0.842413,-0.9716 -1.186614,-2.809392 -0.426847,-4.165121 C 38.754089,17.02072 37.289541,15.430887 37.442159,13.014193 33.82226,11.467988 32.941407,12.343048 32.535482,8.533846 29.447601,7.8212581 28.987775,7.5104582 26.561686,5.1014974 Z"
       style="display:inline;fill:#d3c624;stroke-linejoin:bevel;stroke-dashoffset:50"
       id="path10" />
    <circle
       style="display:inline;fill:#ad7e35;fill-opacity:1;stroke-width:0.490993;stroke-linejoin:bevel;stroke-dashoffset:50"
       id="path3"
       cx="23.092228"
       cy="25.158049"
       r="5.8652015" />
  </g>
</svg>
