<?xml version="1.0" encoding="UTF-8" standalone="no"?>
<!-- Created with Inkscape (http://www.inkscape.org/) -->

<svg
   width="64mm"
   height="64mm"
   viewBox="0 0 64 64"
   version="1.1"
   id="svg1"
   inkscape:export-filename="plantaej.svg"
   inkscape:export-xdpi="96"
   inkscape:export-ydpi="96"
   sodipodi:docname="plantaej.svg"
   inkscape:version="1.4.2 (ebf0e94, 2025-05-08)"
   xmlns:inkscape="http://www.inkscape.org/namespaces/inkscape"
   xmlns:sodipodi="http://sodipodi.sourceforge.net/DTD/sodipodi-0.dtd"
   xmlns="http://www.w3.org/2000/svg"
   xmlns:svg="http://www.w3.org/2000/svg">
  <sodipodi:namedview
     id="namedview1"
     pagecolor="#ffffff"
     bordercolor="#000000"
     borderopacity="0.25"
     inkscape:showpageshadow="2"
     inkscape:pageopacity="0.0"
     inkscape:pagecheckerboard="0"
     inkscape:deskcolor="#d1d1d1"
     inkscape:document-units="mm"
     inkscape:export-bgcolor="#ffffff00"
     inkscape:zoom="1.2447381"
     inkscape:cx="97.209204"
     inkscape:cy="125.32757"
     inkscape:window-width="1366"
     inkscape:window-height="655"
     inkscape:window-x="0"
     inkscape:window-y="0"
     inkscape:window-maximized="1"
     inkscape:current-layer="layer1">
    <inkscape:page
       x="0"
       y="0"
       width="64"
       height="64"
       id="page1"
       margin="0"
       bleed="0" />
  </sodipodi:namedview>
  <defs
     id="defs1" />
  <g
     inkscape:label="Capa 1"
     inkscape:groupmode="layer"
     id="layer1">
    <rect
       style="display:inline;fill:#ffffff;fill-opacity:1;stroke-width:0.840579;stroke-linejoin:bevel;stroke-dashoffset:50"
       id="rect6-3"
       width="53.79705"
       height="53.79705"
       x="5.1014748"
       y="5.1014748" />
    <rect
       style="display:inline;fill:#ffffff;fill-opacity:1;stroke-width:1;stroke-linejoin:bevel;stroke-dashoffset:50"
       id="rect6"
       width="64"
       height="64"
       x="0"
       y="0" />
    <path
       style="fill:#8a993d;fill-opacity:1;stroke-width:1;stroke-linejoin:bevel;stroke-dashoffset:50"
       d="m 31.999999,16.232793 c 2.81568,-5.471626 11.351598,-6.3617807 16.848685,-5.561234 -4.729379,6.15348 -6.806052,9.856537 -15.481276,8.717611 -0.105746,6.948815 1.291544,12.995807 4.191871,18.140978 l 0.166936,5.306391 H 27.054656 c 2.454959,-6.513158 3.206477,-13.727733 2.254554,-21.643725 -7.291543,1.709322 -8.349975,-2.440604 -12.475202,-7.214575 6.971231,-1.612603 8.639816,0 15.165991,2.254554 z"
       id="path2"
       sodipodi:nodetypes="ccccccccc" />
    <path
       style="display:inline;fill:#ffffff;fill-opacity:1;stroke-width:1;stroke-linejoin:bevel;stroke-dashoffset:50"
       d="m 0,34.039907 c 18.98249,13.597396 42.885915,-6.177522 63.999998,0 v 27.77682 H 0 Z"
       id="path1-5"
       sodipodi:nodetypes="ccccc" />
    <path
       style="display:none;fill:#5e462f;stroke-width:1;stroke-linejoin:bevel;stroke-dashoffset:50"
       d="m 0,36.223178 c 18.98249,13.597396 42.885915,-6.177522 63.999998,0 v 27.77682 H 0 Z"
       id="path1"
       sodipodi:nodetypes="ccccc" />
    <path
       d="M 5.1014974,39.069967 V 58.89873 H 58.89873 V 35.210254 C 40.990327,33.199494 21.574716,45.898029 5.1014974,39.069967 Z"
       style="display:inline;fill:#5e462f;stroke-linejoin:bevel;stroke-dashoffset:50"
       id="path7" />
    <path
       style="display:inline;fill:#bcb372;fill-opacity:1;stroke-width:1;stroke-linejoin:bevel;stroke-dashoffset:50"
       d="m 38.41704,42.836539 c 1.960426,5.445637 1.630434,6.659262 7.336813,7.753085 -7.148373,0.431845 -7.353548,-1.759211 -10.309232,-7.753085 z"
       id="path3"
       sodipodi:nodetypes="cccc" />
    <path
       style="fill:#bcb372;fill-opacity:1;stroke-width:1;stroke-linejoin:bevel;stroke-dashoffset:50"
       d="M 33.931505,42.836539 C 33.709263,48.577608 32.841346,51.63583 36.294867,58.392964 30.919181,51.97765 31.54001,50.93111 30.507863,42.836539 h 3.423642"
       id="path4"
       sodipodi:nodetypes="cccc" />
    <path
       style="fill:#bcb372;fill-opacity:1;stroke-width:1;stroke-linejoin:bevel;stroke-dashoffset:50"
       d="m 27.054656,42.836539 h 2.178755 c -3.14437,6.659262 -2.712789,9.850686 -9.676998,9.850686 4.670514,-1.657282 5.273258,-4.236855 7.498243,-9.850686 z"
       id="path5"
       sodipodi:nodetypes="cccc" />
    <path
       d="M 0,0 V 64.000228 H 64.000228 V 0 Z M 5.1014974,5.1014974 H 58.89873 V 58.89873 H 5.1014974 Z"
       style="display:none;fill:#ffffff;stroke-linejoin:bevel;stroke-dashoffset:50"
       id="path6" />
  </g>
</svg>
